<svg width="24" height="25" viewBox="0 0 24 25" fill="none" xmlns="http://www.w3.org/2000/svg">
<g id="Iconsax/Bold/like1">
<path id="Vector" d="M15.61 5.80788L15.61 15.9679C15.61 16.3679 15.49 16.7579 15.27 17.0879L12.54 21.1479C12.11 21.7979 11.04 22.2579 10.13 21.9179C9.15 21.5879 8.5 20.4879 8.71 19.5079L9.23 16.2379C9.27 15.9379 9.19 15.6679 9.02 15.4579C8.85 15.2679 8.6 15.1479 8.33 15.1479H4.22C3.43 15.1479 2.75 14.8279 2.35 14.2679C1.97 13.7279 1.9 13.0279 2.15 12.3179L4.61 4.82788C4.92 3.58788 6.27 2.57788 7.61 2.57788H11.51C12.18 2.57788 13.12 2.80788 13.55 3.23788L14.83 4.22788C15.32 4.59788 15.61 5.18788 15.61 5.80788ZM18.79 17.9189H19.82C21.37 17.9189 22 17.3189 22 15.8389L22 5.77888C22 4.29888 21.37 3.69888 19.82 3.69888H18.79C17.24 3.69888 16.61 4.29888 16.61 5.77888V15.8389C16.61 17.3189 17.24 17.9189 18.79 17.9189Z" fill="black"/>
</g>
</svg>
