<?xml version="1.0" encoding="UTF-8"?>
<svg xmlns="http://www.w3.org/2000/svg" id="a" width="865.76" height="682.89" viewBox="0 0 865.76 682.89">
  <g>
    <g>
      <g>
        <rect x="314.68" y="84.44" width="386.17" height="261.1" rx="32.21" ry="32.21" fill="#e6e7e8"></rect>
        <path d="M668.64,346.04H346.89c-18.04,0-32.71-14.67-32.71-32.71V116.65c0-18.04,14.67-32.71,32.71-32.71h321.75c18.04,0,32.71,14.67,32.71,32.71v196.68c0,18.04-14.67,32.71-32.71,32.71ZM346.89,84.94c-17.49,0-31.71,14.22-31.71,31.71v196.68c0,17.49,14.22,31.71,31.71,31.71h321.75c17.49,0,31.71-14.22,31.71-31.71V116.65c0-17.49-14.22-31.71-31.71-31.71H346.89Z" fill="#002346"></path>
      </g>
      <g>
        <rect x="301.81" y="93.22" width="389.46" height="247.94" rx="32.21" ry="32.21" fill="#fff"></rect>
        <path d="M659.06,341.66H334.02c-18.04,0-32.71-14.67-32.71-32.71V125.43c0-18.04,14.67-32.71,32.71-32.71h325.04c18.04,0,32.71,14.67,32.71,32.71v183.52c0,18.04-14.67,32.71-32.71,32.71ZM334.02,93.72c-17.49,0-31.71,14.22-31.71,31.71v183.52c0,17.49,14.22,31.71,31.71,31.71h325.04c17.49,0,31.71-14.22,31.71-31.71V125.43c0-17.49-14.22-31.71-31.71-31.71H334.02Z" fill="#002346"></path>
      </g>
      <g>
        <rect x="489.41" y="273.14" width="131.65" height="8.78" fill="#fff"></rect>
        <path d="M621.56,282.42h-132.65v-9.78h132.65v9.78Zm-131.65-1h130.65v-7.78h-130.65v7.78Z" fill="#002346"></path>
      </g>
      <g>
        <rect x="489.41" y="288.5" width="85.57" height="8.78" fill="#fff"></rect>
        <path d="M575.48,297.78h-86.57v-9.78h86.57v9.78Zm-85.57-1h84.57v-7.78h-84.57v7.78Z" fill="#002346"></path>
      </g>
      <g>
        <rect x="489.41" y="303.85" width="115.19" height="8.78" fill="#fff"></rect>
        <path d="M605.1,313.13h-116.19v-9.78h116.19v9.78Zm-115.19-1h114.19v-7.78h-114.19v7.78Z" fill="#002346"></path>
      </g>
      <g>
        <rect x="333.62" y="121.74" width="183.21" height="118.48" rx="6.46" ry="6.46" fill="#e6e7e8"></rect>
        <path d="M510.37,240.72h-170.29c-3.84,0-6.96-3.12-6.96-6.96v-105.56c0-3.84,3.12-6.96,6.96-6.96h170.29c3.84,0,6.96,3.12,6.96,6.96v105.56c0,3.84-3.12,6.96-6.96,6.96Zm-170.29-118.48c-3.29,0-5.96,2.67-5.96,5.96v105.56c0,3.29,2.67,5.96,5.96,5.96h170.29c3.29,0,5.96-2.67,5.96-5.96v-105.56c0-3.29-2.67-5.96-5.96-5.96h-170.29Z" fill="#002346"></path>
      </g>
      <path d="M507.77,212.45h-143.56c-.28,0-.5-.22-.5-.5v-80.37c0-.28,.22-.5,.5-.5s.5,.22,.5,.5v79.87h143.06c.28,0,.5,.22,.5,.5s-.22,.5-.5,.5Z" fill="#002346"></path>
      <g>
        <rect x="379.7" y="190.86" width="4.39" height="20.84" fill="#fff"></rect>
        <path d="M384.59,212.2h-5.39v-21.84h5.39v21.84Zm-4.39-1h3.39v-19.84h-3.39v19.84Z" fill="#002346"></path>
      </g>
      <g>
        <rect x="392.87" y="187.56" width="4.39" height="24.14" fill="#fff"></rect>
        <path d="M397.76,212.2h-5.39v-25.14h5.39v25.14Zm-4.39-1h3.39v-23.14h-3.39v23.14Z" fill="#002346"></path>
      </g>
      <g>
        <rect x="453.21" y="187.56" width="4.39" height="24.14" fill="#fff"></rect>
        <path d="M458.1,212.2h-5.39v-25.14h5.39v25.14Zm-4.39-1h3.39v-23.14h-3.39v23.14Z" fill="#002346"></path>
      </g>
      <g>
        <rect x="466.37" y="165.62" width="4.39" height="46.08" fill="#fff"></rect>
        <path d="M471.26,212.2h-5.39v-47.08h5.39v47.08Zm-4.39-1h3.39v-45.08h-3.39v45.08Z" fill="#002346"></path>
      </g>
      <g>
        <path d="M664,154.65c1.35,5.2,2.02,10.54,2,15.91,0,33.63-26.53,60.89-59.24,60.89-4.33,0-8.65-.48-12.87-1.44l12.95-58.52,57.16-16.84Z" fill="#1E40AF"></path>
        <path d="M606.75,231.95c-4.36,0-8.72-.49-12.97-1.45l-.49-.11,13.12-59.29,.28-.08,57.66-16.99,.13,.5c1.36,5.23,2.03,10.63,2.02,16.04,0,33.85-26.8,61.39-59.74,61.39h-.01Zm-12.26-2.32c4.02,.88,8.15,1.32,12.26,1.32h.01c32.39,0,58.74-27.09,58.74-60.39,.02-5.15-.61-10.29-1.86-15.28l-56.38,16.61-12.78,57.74Z" fill="#002346"></path>
      </g>
      <g>
        <path d="M593.99,230.02c-26.56-6-46.44-30.35-46.44-59.46,0-6.92,1.14-13.8,3.39-20.35l55.94,21.28-12.89,58.53Z" fill="#ffffff"></path>
        <path d="M594.37,230.61l-.49-.11c-27.13-6.13-46.83-31.34-46.83-59.95,0-6.99,1.14-13.9,3.42-20.51l.17-.49,56.83,21.62-13.09,59.44Zm-43.12-79.76c-2.13,6.36-3.2,12.99-3.2,19.7,0,27.97,19.13,52.64,45.56,58.86l12.69-57.62-55.05-20.94Z" fill="#002346"></path>
      </g>
      <path d="M370.96,178.19c-.15,0-.3-.07-.4-.2-.17-.22-.12-.54,.1-.7l24.2-18.03c.13-.1,.3-.12,.45-.07l21.6,6.93,25.14-13.49c.13-.07,.29-.08,.43-.02l12.93,5.38,28.79-20.05c.23-.16,.54-.1,.7,.12s.1,.54-.12,.7l-29.01,20.21c-.14,.1-.32,.12-.48,.05l-12.96-5.4-25.12,13.48c-.12,.06-.26,.08-.39,.04l-21.55-6.92-23.99,17.88c-.09,.07-.19,.1-.3,.1Z" fill="#002346"></path>
      <path d="M401.97,219.33h-37.76c-.28,0-.5-.22-.5-.5s.22-.5,.5-.5h37.76c.28,0,.5,.22,.5,.5s-.22,.5-.5,.5Z" fill="#002346"></path>
      <path d="M397.97,224.33h-33.76c-.28,0-.5-.22-.5-.5s.22-.5,.5-.5h33.76c.28,0,.5,.22,.5,.5s-.22,.5-.5,.5Z" fill="#002346"></path>
      <path d="M391.97,229.33h-27.76c-.28,0-.5-.22-.5-.5s.22-.5,.5-.5h27.76c.28,0,.5,.22,.5,.5s-.22,.5-.5,.5Z" fill="#002346"></path>
      <path d="M355.66,144.1h-5.03c-.28,0-.5-.22-.5-.5s.22-.5,.5-.5h5.03c.28,0,.5,.22,.5,.5s-.22,.5-.5,.5Z" fill="#002346"></path>
      <path d="M355.66,154.1h-5.03c-.28,0-.5-.22-.5-.5s.22-.5,.5-.5h5.03c.28,0,.5,.22,.5,.5s-.22,.5-.5,.5Z" fill="#002346"></path>
      <path d="M355.66,162.1h-5.03c-.28,0-.5-.22-.5-.5s.22-.5,.5-.5h5.03c.28,0,.5,.22,.5,.5s-.22,.5-.5,.5Z" fill="#002346"></path>
      <path d="M355.66,169.1h-5.03c-.28,0-.5-.22-.5-.5s.22-.5,.5-.5h5.03c.28,0,.5,.22,.5,.5s-.22,.5-.5,.5Z" fill="#002346"></path>
      <path d="M355.66,177.1h-5.03c-.28,0-.5-.22-.5-.5s.22-.5,.5-.5h5.03c.28,0,.5,.22,.5,.5s-.22,.5-.5,.5Z" fill="#002346"></path>
      <path d="M355.66,185.1h-5.03c-.28,0-.5-.22-.5-.5s.22-.5,.5-.5h5.03c.28,0,.5,.22,.5,.5s-.22,.5-.5,.5Z" fill="#002346"></path>
      <path d="M355.66,194.1h-5.03c-.28,0-.5-.22-.5-.5s.22-.5,.5-.5h5.03c.28,0,.5,.22,.5,.5s-.22,.5-.5,.5Z" fill="#002346"></path>
      <path d="M355.66,203.1h-5.03c-.28,0-.5-.22-.5-.5s.22-.5,.5-.5h5.03c.28,0,.5,.22,.5,.5s-.22,.5-.5,.5Z" fill="#002346"></path>
      <g>
        <circle cx="370.92" cy="177.69" r="3.29" fill="#ffffff"></circle>
        <path d="M370.92,181.48c-2.09,0-3.79-1.7-3.79-3.79s1.7-3.79,3.79-3.79,3.79,1.7,3.79,3.79-1.7,3.79-3.79,3.79Zm0-6.58c-1.54,0-2.79,1.25-2.79,2.79s1.25,2.79,2.79,2.79,2.79-1.25,2.79-2.79-1.25-2.79-2.79-2.79Z" fill="#002346"></path>
      </g>
      <g>
        <circle cx="395.06" cy="160.04" r="3.29" fill="#ffffff"></circle>
        <path d="M395.06,163.83c-2.09,0-3.79-1.7-3.79-3.79s1.7-3.79,3.79-3.79,3.79,1.7,3.79,3.79-1.7,3.79-3.79,3.79Zm0-6.58c-1.54,0-2.79,1.25-2.79,2.79s1.25,2.79,2.79,2.79,2.79-1.25,2.79-2.79-1.25-2.79-2.79-2.79Z" fill="#002346"></path>
      </g>
      <g>
        <circle cx="442.23" cy="153.46" r="3.29" fill="#ffffff"></circle>
        <path d="M442.23,157.25c-2.09,0-3.79-1.7-3.79-3.79s1.7-3.79,3.79-3.79,3.79,1.7,3.79,3.79-1.7,3.79-3.79,3.79Zm0-6.58c-1.54,0-2.79,1.25-2.79,2.79s1.25,2.79,2.79,2.79,2.79-1.25,2.79-2.79-1.25-2.79-2.79-2.79Z" fill="#002346"></path>
      </g>
      <g>
        <circle cx="455.4" cy="157.94" r="3.29" fill="#ffffff"></circle>
        <path d="M455.4,161.73c-2.09,0-3.79-1.7-3.79-3.79s1.7-3.79,3.79-3.79,3.79,1.7,3.79,3.79-1.7,3.79-3.79,3.79Zm0-6.58c-1.54,0-2.79,1.25-2.79,2.79s1.25,2.79,2.79,2.79,2.79-1.25,2.79-2.79-1.25-2.79-2.79-2.79Z" fill="#002346"></path>
      </g>
    </g>
    <g>
      <path d="M642.2,121.75c-10.14-7.83-22.59-12.07-35.4-12.07-25.78,0-47.7,16.92-55.85,40.53l55.93,21.29,35.32-49.75Z" fill="#fff"></path>
      <path d="M607.06,172.1l-.36-.14-56.38-21.46,.16-.46c8.44-24.44,31.07-40.87,56.32-40.87h.01c12.85,0,25.52,4.32,35.69,12.17l.38,.29-35.82,50.46Zm-55.48-22.19l55.11,20.98,34.82-49.04c-9.93-7.53-22.23-11.67-34.7-11.67h-.01c-24.67,0-46.8,15.95-55.22,39.74Z" fill="#002346"></path>
    </g>
    <g>
      <path d="M663.98,154.61c-3.42-13.06-11.08-24.62-21.78-32.86l-35.32,49.75,57.1-16.89Z" fill="#e6e7e8"></path>
      <path d="M605.63,172.39l36.46-51.35,.41,.32c10.73,8.26,18.53,20.03,21.96,33.13l.12,.47-58.95,17.44Zm36.67-49.92l-34.18,48.15,55.25-16.34c-3.39-12.53-10.85-23.79-21.07-31.8Z" fill="#002346"></path>
    </g>
    <path d="M486.37,144.65c-.28,0-.5-.22-.5-.5v-7.32h-8.34c-.28,0-.5-.22-.5-.5s.22-.5,.5-.5h8.84c.28,0,.5,.22,.5,.5v7.82c0,.28-.22,.5-.5,.5Z" fill="#002346"></path>
  </g>
  <g>
    <g>
      <circle cx="439.44" cy="159.26" r="12.1" fill="#002346"></circle>
      <path d="M441.02,146.8c6.87,.87,11.75,7.17,10.88,14.04s-7.17,11.75-14.04,10.88c-6.87-.87-11.75-7.17-10.88-14.04s7.17-11.75,14.04-10.88Zm-.12,.92c-6.36-.81-12.19,3.71-13,10.08-.81,6.36,3.71,12.19,10.08,13,6.36,.81,12.19-3.71,13-10.08s-3.71-12.19-10.08-13Z" fill="#0d2445"></path>
    </g>
    <g>
      <circle cx="433.14" cy="166.99" r="9.3" fill="#ffffff"></circle>
      <path d="M434.37,157.3c5.34,.68,9.14,5.58,8.46,10.92s-5.58,9.14-10.92,8.46c-5.34-.68-9.14-5.58-8.46-10.92,.68-5.34,5.58-9.14,10.92-8.46Zm-.12,.92c-4.84-.61-9.27,2.82-9.88,7.66s2.82,9.27,7.66,9.88c4.84,.61,9.27-2.82,9.88-7.66,.61-4.84-2.82-9.27-7.66-9.88Z" fill="#002346"></path>
    </g>
  </g>
  <g>
    <g>
      <circle cx="163.93" cy="227.26" r="12.1" fill="#002346"></circle>
      <path d="M176.39,225.68c.87,6.87-4.01,13.17-10.88,14.04-6.87,.87-13.17-4.01-14.04-10.88-.87-6.87,4.01-13.17,10.88-14.04,6.87-.87,13.17,4.01,14.04,10.88Zm-24,3.04c.81,6.36,6.64,10.88,13,10.08s10.88-6.64,10.08-13c-.81-6.36-6.64-10.88-13-10.08s-10.88,6.64-10.08,13Z" fill="#0d2445"></path>
    </g>
    <g>
      <circle cx="170.23" cy="234.99" r="9.3" fill="#ffffff"></circle>
      <path d="M179.92,233.76c.68,5.34-3.12,10.24-8.46,10.92-5.34,.68-10.24-3.12-10.92-8.46s3.12-10.24,8.46-10.92c5.34-.68,10.24,3.12,10.92,8.46Zm-18.46,2.34c.61,4.84,5.04,8.27,9.88,7.66,4.84-.61,8.27-5.04,7.66-9.88s-5.04-8.27-9.88-7.66-8.27,5.04-7.66,9.88Z" fill="#002346"></path>
    </g>
  </g>
  <g>
    <path d="M407.78,236.75l39.39-3.68,6,67.51s-6.64,11.48-8,12-39.7-1.59-39.7-1.59l-3.77-16.11,6.08-58.13Z" fill="#fff"></path>
    <path d="M443.35,313.14c-7.35,0-32.33-1.35-37.91-1.66l-.37-.02-3.88-16.56,6.13-58.62,40.3-3.77,.04,.5,6.01,67.67-.08,.14c-1.58,2.73-6.84,11.67-8.25,12.22-.18,.07-.89,.1-2,.1Zm-37.48-2.64c15.16,.83,37.83,1.93,39.14,1.59,.77-.37,4.49-6.18,7.65-11.64l-5.94-66.85-38.48,3.6-6.03,57.64,3.67,15.66Z" fill="#002346"></path>
  </g>
  <g>
    <path d="M462.53,540.03s.45,23.82,11.78,29.32c2.46,1.18,5.39,.79,7.45-1,4.07-3.54,9.45-12.47,1.07-33l-20.3,4.68Z" fill="#ffffff"></path>
    <path d="M477.28,570.52c-1.08,0-2.17-.24-3.18-.73-11.48-5.57-12.04-28.78-12.06-29.76v-.41s21.1-4.87,21.1-4.87l.16,.39c8.52,20.88,2.9,29.99-1.2,33.57-1.36,1.19-3.08,1.8-4.81,1.8Zm-14.23-30.1c.13,3.14,1.36,23.56,11.49,28.47,2.28,1.1,4.99,.73,6.9-.93,3.88-3.38,9.15-12.02,1.09-32.04l-19.48,4.49Z" fill="#002346"></path>
  </g>
  <g>
    <path d="M469.58,406.9l3.37,53.85s2.2,38.39,2.2,50.46,7.68,24.14,7.68,24.14c-1.1,12.07-9.88,13.16-9.88,13.16-4.39,1.1-7.68-3.29-9.87-6.58-1.33-2-.24-8.45,.83-13.21,.78-3.48,.52-7.1-.7-10.46-8.71-23.98-14.39-75.07-14.39-75.07-4.39-11-6.59-29.62-6.59-29.62l27.35-6.67Z" fill="#f2b3c1"></path>
    <path d="M471.55,549.19c-4.23,0-7.32-4.63-8.88-6.98-1.13-1.71-.88-6.28,.76-13.6,.75-3.36,.52-6.88-.68-10.18-8.49-23.37-14.17-72.99-14.41-75.12-4.35-10.94-6.58-29.5-6.6-29.68l-.05-.44,28.36-6.92,3.41,54.45c.02,.39,2.2,38.54,2.2,50.49s7.53,23.75,7.6,23.87l.09,.14-.02,.17c-1.12,12.33-10.22,13.6-10.32,13.61-.5,.13-.99,.18-1.47,.18Zm-28.76-135.24c.37,2.88,2.56,19.17,6.5,29.05l.03,.13c.06,.51,5.77,51.3,14.36,74.96,1.26,3.48,1.51,7.19,.72,10.74-1.53,6.84-1.85,11.4-.9,12.83,2.46,3.69,5.47,7.33,9.33,6.37,.4-.05,8.38-1.21,9.49-12.55-.87-1.43-7.67-12.9-7.67-24.26,0-11.92-2.18-50.05-2.2-50.43l-3.33-53.25-26.34,6.42Z" fill="#002346"></path>
  </g>
  <g>
    <path d="M407.99,213.5s-4.3,11.21-8.07,15.67c5.47-2.22,11.21-3.67,17.08-4.31v-6.18s-4.39-.4-9.01-5.18Z" fill="#002346"></path>
    <path d="M398.23,230.39l1.31-1.55c3.67-4.34,7.94-15.41,7.99-15.53l.28-.73,.54,.56c4.42,4.57,8.65,5.03,8.7,5.03l.45,.04v7.08s-.45,.05-.45,.05c-5.82,.63-11.52,2.07-16.95,4.28l-1.88,.76Zm9.95-16c-.91,2.29-3.85,9.4-6.79,13.67,4.87-1.83,9.95-3.05,15.11-3.65v-5.3c-1.21-.23-4.64-1.15-8.32-4.72Z" fill="#002346"></path>
  </g>
  <g>
    <path d="M338.47,251.08l1.9,4s8.06-2.27,14.15-12.22l-1.47-2.46c-.38-.64-1.2-.86-1.85-.48-.05,.03-.1,.07-.15,.1l-12.2,9.39c-.51,.39-.67,1.09-.38,1.67Z" fill="#fff"></path>
    <path d="M340.1,255.67l-2.08-4.38c-.39-.79-.17-1.75,.52-2.28l12.2-9.39c.06-.05,.13-.1,.21-.14,.88-.51,2.01-.22,2.53,.66l1.62,2.72-.16,.26c-6.12,10-14.1,12.35-14.44,12.44l-.41,.11Zm11.78-15.44c-.15,0-.29,.04-.43,.12-.03,.02-.06,.04-.09,.06l-12.21,9.4c-.32,.25-.42,.69-.24,1.05h0s1.71,3.61,1.71,3.61c1.66-.6,8.18-3.4,13.3-11.61l-1.31-2.2c-.16-.27-.45-.42-.74-.42Z" fill="#002346"></path>
  </g>
  <g>
    <path d="M417.34,554.75h0c-.07,.78-.75,1.36-1.53,1.3-.69-.06-1.24-.61-1.3-1.3v-11c-2.06,3.5-4.85,6.53-8.17,8.87-3.26,2.35-7.17,3.61-11.19,3.6h-18.74c-4.39-1.1,13.16-14.26,13.16-14.26,0,0,6.59,6.58,17.56-5.49,0,0,4.39-6.58,9.87-7.67l.34,25.95Z" fill="#ffffff"></path>
    <path d="M395.21,556.72h-18.92c-.79-.21-1-.72-1.06-1-.6-3,11.59-12.32,14.04-14.16l.34-.26,.31,.3s1.78,1.7,4.95,1.64c3.69-.1,7.69-2.5,11.89-7.11,.14-.22,4.52-6.71,10.14-7.82l.59-.12,.35,26.58v.02c-.09,1.05-1.02,1.84-2.08,1.75-.94-.08-1.67-.82-1.75-1.75v-9.31c-1.98,2.95-4.46,5.48-7.38,7.55-3.34,2.42-7.29,3.69-11.42,3.69Zm-18.74-1h18.73c3.92,0,7.66-1.21,10.84-3.5,3.29-2.32,5.99-5.25,8.03-8.72l.93-1.58v12.83c.04,.41,.39,.76,.84,.8,.5,.04,.94-.32,.99-.82l-.33-25.3c-4.94,1.37-8.92,7.25-8.96,7.32-4.45,4.9-8.7,7.4-12.68,7.5-2.8,.07-4.61-1.09-5.32-1.65-5.85,4.42-13.68,11.2-13.34,12.92,0,.04,.03,.13,.26,.2Z" fill="#002346"></path>
  </g>
  <g>
    <path d="M471.86,358.75v43.45c.02,2.52-1.55,4.78-3.91,5.66-12.15,4.58-25.01,6.99-38,7.12h0c-9.59,.07-19.09-1.72-28-5.26-2.19-.91-3.61-3.06-3.59-5.43v-91.76c4.51-4.15,9.8-7.36,15.57-9.43,10.2-3.8,21.52-3.25,31.31,1.51l3.89,7.92,22.73,46.22Z" fill="#1E40AF"></path>
    <path d="M429.41,415.48c-9.51,0-18.81-1.78-27.65-5.3-2.39-1-3.92-3.31-3.91-5.9v-91.98l.16-.15c4.58-4.22,9.88-7.43,15.74-9.53,10.28-3.82,21.83-3.27,31.7,1.53l.15,.07,3.97,8.08,22.78,46.32v43.57c.02,2.72-1.69,5.18-4.24,6.13-12.24,4.62-25.08,7.02-38.17,7.15-.18,0-.36,0-.54,0Zm-30.55-102.73v91.54c-.02,2.18,1.27,4.13,3.28,4.97,8.88,3.53,18.27,5.27,27.8,5.22,12.97-.13,25.69-2.51,37.83-7.09,2.16-.8,3.6-2.89,3.59-5.19v-43.34l-26.49-53.88c-9.59-4.61-20.79-5.13-30.76-1.42-5.67,2.04-10.8,5.12-15.25,9.18Z" fill="#002346"></path>
  </g>
  <g>
    <ellipse cx="214.04" cy="558.38" rx="46.08" ry="12.07" fill="#fff"></ellipse>
    <path d="M214.04,570.95c-26.12,0-46.58-5.52-46.58-12.57s20.46-12.57,46.58-12.57,46.58,5.52,46.58,12.57-20.46,12.57-46.58,12.57Zm0-24.14c-24.71,0-45.58,5.3-45.58,11.57s20.87,11.57,45.58,11.57,45.58-5.3,45.58-11.57-20.87-11.57-45.58-11.57Z" fill="#002346"></path>
  </g>
  <g>
    <path d="M197.81,461.06l9.49,90.69c.18,1.5,1.43,2.63,2.94,2.65h6.88c1.66,0,3-1.34,3-3v-93.65h-19.37c-1.66,.02-2.98,1.39-2.96,3.04,0,.09,0,.18,.02,.27Z" fill="#e6e7e8"></path>
    <path d="M217.12,554.9h-6.88c-1.76-.02-3.23-1.35-3.44-3.09l-9.49-90.7c-.01-.1-.02-.21-.02-.31-.03-1.93,1.52-3.52,3.45-3.55h19.88v94.15c0,1.93-1.57,3.5-3.5,3.5Zm-16.37-96.65c-1.37,.02-2.48,1.16-2.46,2.54,0,.08,0,.15,.01,.22h0s9.49,90.69,9.49,90.69c.14,1.24,1.2,2.18,2.45,2.2h6.87c1.38,0,2.5-1.12,2.5-2.5v-93.15h-18.87Z" fill="#002346"></path>
  </g>
  <g>
    <path d="M150.41,318.12s-19.75,2.19-20.84,28.52c0,0-3.29,30.18,10.42,86.4,0,0,5.3,33.56,46.8,30.63l47-1.74,1.9-36.06-44.86-88-40.42-19.75Z" fill="#fff"></path>
    <path d="M181.81,464.35c-36.94,0-42.26-30.91-42.31-31.23-13.57-55.62-10.46-86.23-10.42-86.53,1.09-26.42,21.08-28.94,21.28-28.96l.14-.02,.13,.06,40.57,19.82,.08,.15,44.92,88.12v.13s-1.93,36.52-1.93,36.52l-.46,.02-47,1.74c-1.73,.12-3.4,.18-5,.18Zm-31.48-145.71c-1.89,.26-19.23,3.33-20.25,28.03-.04,.33-3.12,30.79,10.41,86.26,.06,.37,5.73,33.12,46.28,30.25l46.56-1.72,1.87-35.47-44.72-87.73-40.14-19.61Z" fill="#002346"></path>
  </g>
  <g>
    <path d="M188.63,319.28l32.54-2.81,5.22,41.3,1.91,13.66s-10.42,12-11.51,12.52c-1.09,.52-13.72-12.52-13.72-12.52l-14.44-52.15Z" fill="#fff"></path>
    <path d="M216.8,384.45c-.65,0-2.95-1.18-14.09-12.68l-.09-.09-.03-.12-14.6-52.73,33.62-2.9,5.28,41.78,1.94,13.88-.15,.17c-1.75,2.02-10.55,12.11-11.67,12.64-.05,.02-.11,.05-.21,.05Zm-13.28-13.28c5.59,5.77,11.91,11.81,13.14,12.27,1.08-.8,7.26-7.73,11.12-12.17l-1.88-13.43-5.16-40.83-31.46,2.72,14.25,51.45Z" fill="#002346"></path>
  </g>
  <g>
    <path d="M226.86,297.27s11.32-3.29,15.71,4.39l14.26,30.72v36.67l-34-19.12,4.03-52.66Z" fill="#1E40AF"></path>
    <path d="M256.83,369.55c-.08,0-.17-.02-.25-.06l-34-19.12c-.17-.09-.27-.28-.25-.47l4.03-52.66c.02-.21,.16-.38,.36-.44,.12-.03,11.75-3.31,16.28,4.62l14.28,30.76c.03,.07,.05,.14,.05,.21v36.67c0,.18-.09,.34-.25,.43-.08,.05-.17,.07-.25,.07Zm-33.48-19.9l32.98,18.54v-35.71l-14.21-30.62c-3.71-6.5-12.92-4.66-14.79-4.21l-3.98,51.99Z" fill="#002346"></path>
  </g>
  <g>
    <path d="M648.22,562.07l-3.14,1.73c-.94,.52-2.02,.73-3.08,.6-5.73-.77-11.07,7.14-11.07,7.14-1.95,3.26-5.1,5.62-8.77,6.58-20.85,7.68-25.43-3-25.43-3-4.59-5.2,11.16-11.27,11.16-11.27,6.27-.9,10.34-14.19,11.62-19.07,8.79-.46,22.39-7.81,22.39-7.81,.69-.39,1.3-.91,1.78-1.54l8.1,21.84c.53,1.83-1.89,3.88-3.56,4.8Z" fill="#1E40AF"></path>
    <path d="M608.73,581.42c-9.25,0-12.06-5.28-12.42-6.04-.81-.95-1.08-1.99-.81-3.09,1.12-4.59,11.77-8.74,12.22-8.92l.11-.03c6.08-.87,10.12-14.54,11.21-18.7l.09-.35,.36-.02c8.58-.45,22.04-7.68,22.18-7.75,.63-.35,1.18-.83,1.62-1.41l.55-.71,8.41,22.69c.66,2.27-2.19,4.53-3.79,5.41l-3.14,1.73c-1.04,.57-2.2,.8-3.38,.66-5.35-.71-10.54,6.85-10.6,6.92-2.01,3.37-5.24,5.79-9.06,6.78-5.6,2.06-10.04,2.82-13.56,2.83Zm-.71-17.09c-.79,.31-10.59,4.26-11.56,8.2-.2,.8,.01,1.54,.64,2.25l.08,.13c.04,.1,4.69,10.13,24.8,2.73,3.61-.95,6.62-3.2,8.51-6.37,.24-.36,5.58-8.19,11.56-7.38,.96,.11,1.92-.07,2.77-.54l3.14-1.73c1.51-.83,3.76-2.72,3.32-4.22l-7.8-21.02c-.4,.4-.86,.74-1.36,1.02-.56,.3-13.45,7.22-22.24,7.85-1.52,5.69-5.54,18.1-11.88,19.08Z" fill="#002346"></path>
  </g>
  <g>
    <ellipse cx="672.62" cy="573.19" rx="41.69" ry="11.52" fill="#fff"></ellipse>
    <path d="M672.62,585.21c-23.66,0-42.19-5.28-42.19-12.02s18.53-12.02,42.19-12.02,42.19,5.28,42.19,12.02-18.53,12.02-42.19,12.02Zm0-23.04c-22.33,0-41.19,5.05-41.19,11.02s18.86,11.02,41.19,11.02,41.19-5.05,41.19-11.02-18.86-11.02-41.19-11.02Z" fill="#002346"></path>
  </g>
  <g>
    <path d="M643.68,535.44c-.48,.63-1.09,1.15-1.78,1.54,0,0-13.6,7.35-22.43,7.77-1.41,.13-2.84-.05-4.18-.51-1.42-.58-2.31-2.01-2.22-3.54,.04-1.2,.53-2.35,1.37-3.21,0,0,2.19-2.19,0-7.68l-10.72-23.35-25.45-49.01,17.56-23-11.73-20.53s22.49-9.84,38.49-7.82l8.42,65.65,10.36,49c.33,1.5,.85,2.95,1.56,4.31,1.3,2.55,3.12,7.27,.75,10.38Z" fill="#ffffff"></path>
    <path d="M618.55,545.29c-1.16,0-2.31-.19-3.42-.58-1.65-.68-2.66-2.3-2.56-4.04,.04-1.32,.58-2.58,1.51-3.53,.02-.02,1.91-2.08-.11-7.15l-10.71-23.33-25.59-49.27,.19-.25,17.36-22.74-11.84-20.73,.51-.22c.23-.1,22.8-9.88,38.75-7.86l.38,.05,.05,.38,8.42,65.65,10.35,48.96c.32,1.45,.83,2.86,1.51,4.18,1.35,2.65,3.24,7.59,.7,10.91h0c-.53,.69-1.18,1.25-1.93,1.67-.57,.31-13.81,7.41-22.65,7.83-.31,.03-.63,.04-.94,.04Zm-39.69-87.79l25.3,48.73,10.73,23.37c2.3,5.75,0,8.14-.1,8.24-.75,.77-1.19,1.79-1.22,2.87-.08,1.33,.69,2.56,1.91,3.06,1.26,.43,2.6,.6,3.95,.47,8.63-.41,22.1-7.64,22.24-7.71,.63-.35,1.18-.83,1.62-1.41,2.2-2.89,.44-7.41-.8-9.85-.73-1.4-1.27-2.89-1.6-4.43l-10.36-49-8.38-65.3c-14.31-1.62-33.92,6.19-37.33,7.61l11.61,20.33-17.57,23.01Z" fill="#002346"></path>
  </g>
  <g>
    <path d="M417,218.68v6.18s-4.47,.86-6.07,1l.59,18.77s16.62,12.41,28.6-3.67c0,0-5.21-12-5.39-18.43l-.4-16.63s-5.26,14.58-17.33,12.78Z" fill="#f2b3c1"></path>
    <path d="M425.1,249.7c-7.53,0-13.6-4.46-13.88-4.67l-.19-.14-.61-19.48,.47-.04c1.28-.11,4.48-.7,5.61-.92v-6.35l.57,.09c11.5,1.7,16.73-12.31,16.79-12.46l.91-2.5,.46,19.29c.17,6.26,5.3,18.12,5.35,18.24l.12,.27-.17,.23c-3.55,4.76-7.85,7.54-12.78,8.25-.89,.13-1.78,.19-2.64,.19Zm-13.09-5.34c.88,.61,4.63,3.05,9.44,3.97,7.19,1.38,13.28-1.13,18.09-7.45-.79-1.86-5.15-12.35-5.32-18.35l-.35-14.43c-1.98,3.95-7.25,12.14-16.38,11.13v6.02l-.41,.08c-.17,.03-3.8,.73-5.65,.96l.57,18.06Z" fill="#002346"></path>
  </g>
  <g>
    <path d="M355.35,241.66c-1.14,1.79-6.77,10-14.86,13.41-.71,.29-1.05,1.11-.75,1.82,.01,.03,.02,.05,.03,.07,3,6.19,15.81,31.4,25.46,37,1.65,.94,3.61,1.18,5.44,.66,8.79-2.5,16.32-8.21,21.1-16l2.19,82.28s2.2,0,6.59,3.29c0,0,12.06,8.78,14.26-8.77l-1.1-70.22-2.19-40.59-.59-18.77s-14.76,2.15-23.68,12.14c-.63,.73-1.21,1.51-1.72,2.33-2.9,4.45-13.36,20.13-19,22.95l-10.79-21.57c-.06-.11-.2-.16-.31-.1-.03,.02-.06,.04-.08,.07Z" fill="#ffffff"></path>
    <path d="M406.85,366.89c-3.39,0-6.43-2.18-6.59-2.3-4.16-3.11-6.28-3.19-6.3-3.19h-.48s-.02-.49-.02-.49l-2.15-80.66c-4.87,7.21-12.09,12.46-20.51,14.85-1.95,.55-4.07,.29-5.82-.71-10.1-5.86-23.15-32.03-25.66-37.22l-.05-.11c-.4-.96,.06-2.06,1.03-2.46,8.08-3.4,13.6-11.61,14.63-13.22v-.02c.08-.09,.17-.17,.27-.23,.35-.18,.8-.04,.98,.31l10.56,21.11c5.55-3.29,15.41-18,18.37-22.54,.52-.83,1.11-1.63,1.76-2.38,8.94-10.02,23.84-12.29,23.99-12.31l.55-.08,.61,19.33,2.19,40.58,1.1,70.24c-.74,5.95-2.67,9.61-5.73,10.93-.91,.39-1.83,.55-2.74,.55Zm-12.4-6.43c.9,.17,3.05,.82,6.4,3.33,.04,.03,4.58,3.27,8.34,1.63,2.71-1.17,4.43-4.56,5.12-10.07l-1.1-70.15-2.19-40.57-.57-18.21c-2.75,.51-15.1,3.23-22.83,11.88-.61,.71-1.17,1.47-1.67,2.26-3.93,6.04-13.67,20.37-19.2,23.13l-.45,.22-10.8-21.59c-1.54,2.33-7.01,9.9-14.82,13.19-.46,.19-.67,.71-.49,1.16,1.55,3.2,15.23,31,25.28,36.83,1.52,.87,3.36,1.09,5.05,.61,8.7-2.47,16.09-8.07,20.81-15.78l.88-1.44,2.22,83.54Z" fill="#002346"></path>
  </g>
  <g>
    <path d="M401.72,228.75s-.87,58.22,12.14,66.14l-2.93-69c-3.15,.66-6.24,1.61-9.21,2.86Z" fill="#1E40AF"></path>
    <path d="M414.4,295.8l-.8-.49c-13.1-7.98-12.42-64.18-12.38-66.57v-.33s.31-.13,.31-.13c2.99-1.26,6.12-2.23,9.3-2.89l.58-.12,.03,.59,2.97,69.94Zm-12.18-66.72c-.04,4.6-.21,55.61,11.1,64.81l-2.86-67.39c-2.81,.62-5.58,1.49-8.24,2.58Z" fill="#002346"></path>
  </g>
  <g>
    <path d="M446.62,354.32s-5.31-22.24-6.5-65.43v-47.95l10.21-17.71s13.85,.54,29.21,14.8l15.63,11.15s7.22,4.58,11.7,0l8.08-7.27c1.02-.92,2.58-.79,3.45,.27,3.51,4.26,7.95,7.66,12.97,9.95,1.46,.67,1.82,2.58,.74,3.77l-18.54,20.45s-4.38,6.58-17.55,1.09l-24.16-8.69s-5.49,9.87-5.49,15.36c0,0-2.19,36.2,11,53.75,0,0,9.87,11-5.48,20.85-.03,.04-23.07,19.75-25.27-4.39Z" fill="#ffffff"></path>
    <path d="M455.72,366.82c-.87,0-1.71-.1-2.52-.33-4.06-1.16-6.44-5.23-7.07-12.09-.24-1.04-5.35-23.55-6.5-65.5v-48.1l.07-.12,10.36-17.97h.3c.14,.02,14.21,.72,29.53,14.95l15.58,11.11s6.91,4.29,11.05,.06l8.1-7.29c.59-.53,1.35-.78,2.14-.73,.8,.06,1.52,.43,2.03,1.05,3.45,4.17,7.87,7.57,12.79,9.81,.83,.38,1.41,1.11,1.6,2.01,.19,.91-.07,1.86-.7,2.55l-18.54,20.45c-.14,.22-4.71,6.8-18.11,1.22l-23.73-8.54c-.99,1.84-5.23,10.04-5.23,14.74-.02,.39-2.03,36.25,10.9,53.45,.13,.15,3.89,4.41,3.12,10.12-.58,4.25-3.51,8.11-8.73,11.46h0c-1.14,.97-9.46,7.69-16.44,7.69Zm-15.09-125.75v47.82c1.17,42.62,6.43,65.09,6.49,65.31v.07c.56,6.04,2.48,9.76,5.72,11.04,7.21,2.85,18.61-6.87,18.72-6.97,5.02-3.23,7.81-6.84,8.34-10.79,.71-5.24-2.86-9.32-2.9-9.36-13.18-17.53-11.15-53.75-11.13-54.11,0-5.52,5.33-15.16,5.55-15.57l.21-.37,24.56,8.83c12.61,5.26,16.8-.64,16.97-.9l18.59-20.51c.42-.46,.58-1.07,.46-1.68-.12-.58-.5-1.06-1.03-1.31-5.06-2.31-9.61-5.79-13.15-10.08-.34-.41-.81-.66-1.33-.69-.51-.04-1.01,.13-1.4,.48l-8.08,7.27c-4.69,4.79-12.23,.1-12.3,.05l-15.65-11.17c-13.85-12.85-26.56-14.5-28.64-14.69l-9.99,17.32Z" fill="#002346"></path>
  </g>
  <g>
    <path d="M440.19,291.01s8.47-.3,8-34.87l2.14-32.91-10.21,17.71,.07,50.07Z" fill="#1E40AF"></path>
    <path d="M439.69,291.52l-.07-50.72,.07-.12,11.28-19.57-2.28,35.05c.47,34.62-8.12,35.32-8.48,35.34l-.52,.02Zm.93-50.45l.07,49.25c1.77-.89,7.38-5.94,7-34.18l2-30.81-9.07,15.74Z" fill="#002346"></path>
  </g>
  <g>
    <path d="M522.79,240.21s13.79-14.25,17.08-13.15c0,0,1.1,2.19-2.19,8.78,0,0,1.71,1,8.54-2.24,0,0,11.21-4,12.23,1.4,.08,.49-.1,.98-.49,1.29l-8.15,6.51c-1.48,1.19-3.25,1.94-5.13,2.17l-12.75,1.57-9.14-6.33Z" fill="#f2b3c1"></path>
    <path d="M531.8,247.06l-9.78-6.77,.41-.42c2.34-2.42,14.2-14.39,17.6-13.28l.2,.07,.09,.18c.12,.24,1.06,2.47-1.9,8.65,.86,.04,3.06-.18,7.59-2.33,.36-.13,7.7-2.71,11.18-.72,.95,.55,1.54,1.38,1.75,2.48,.12,.67-.14,1.35-.67,1.77l-8.15,6.51c-1.55,1.24-3.41,2.03-5.38,2.28l-12.94,1.59Zm-8.24-6.92l8.5,5.89,12.56-1.55c1.79-.22,3.47-.93,4.88-2.06l8.15-6.51c.24-.2,.36-.51,.31-.82-.15-.8-.56-1.38-1.26-1.79-3.09-1.77-10.24,.75-10.31,.77-6.82,3.24-8.76,2.32-8.96,2.2l-.4-.24,.21-.42c2.54-5.08,2.38-7.44,2.24-8.12-2.45-.14-10.79,7.4-15.92,12.64Z" fill="#002346"></path>
  </g>
  <g>
    <path d="M427.47,414.94l-1.69,34.81c0,35.1-8.78,70.91-8.78,70.91v8.09c-5.48,1.09-9.87,7.67-9.87,7.67-11,12.07-17.56,5.49-17.56,5.49l14.79-20.27v-88.39c.01-1.69-.19-3.37-.62-5-2.09-7.58-1.8-18.58-1.8-18.58,10.17,4.9,25.53,5.27,25.53,5.27Z" fill="#f2b3c1"></path>
    <path d="M394.62,544.2c-3.43,0-5.33-1.86-5.41-1.94l-.3-.3,.25-.35,14.69-20.14v-88.23c.01-1.64-.19-3.28-.6-4.87-2.08-7.56-1.82-18.61-1.82-18.72l.02-.77,.7,.34c9.95,4.79,25.17,5.22,25.33,5.22h.51s-1.72,35.33-1.72,35.33c0,34.07-8.38,69.27-8.78,70.95v8.44l-.4,.08c-5.22,1.04-9.51,7.39-9.55,7.46-4.46,4.91-8.73,7.41-12.71,7.5-.07,0-.14,0-.22,0Zm-4.37-2.37c.65,.48,2.21,1.44,4.59,1.37,3.69-.1,7.7-2.49,11.92-7.11,.13-.21,4.31-6.4,9.74-7.73v-7.81c.1-.36,8.78-36.16,8.78-70.79l1.67-34.33c-2.7-.12-15.44-.87-24.52-4.97-.02,2.62,.06,11.39,1.79,17.67,.44,1.68,.65,3.41,.64,5.14v88.55l-.1,.13-14.51,19.89Z" fill="#002346"></path>
  </g>
  <g>
    <path d="M670.69,574.83h0c-3.88,0-7.11-2.95-7.47-6.81l-9.25-101.8h25.23l-1,101.19c-.04,4.12-3.39,7.43-7.51,7.42Z" fill="#e6e7e8"></path>
    <path d="M670.71,575.33s-.02,0-.02,0c-4.16,0-7.58-3.12-7.97-7.26l-9.3-102.35h26.28l-1,101.7c-.04,4.37-3.62,7.92-7.99,7.92Zm-.02-1h.02c3.82,0,6.96-3.1,6.99-6.92l1-100.69h-24.18l9.2,101.25c.33,3.62,3.33,6.36,6.97,6.36h0Z" fill="#002346"></path>
  </g>
  <g>
    <path d="M611.18,537.53l1.92,7.68c.21,.84,.25,1.72,.1,2.57-.4,2.24-1.4,4.33-2.88,6.05-7.68,9.09-27,9.4-27,9.4-5.6,.37-3.4-9.18-2.27-13.09,.33-1.13,.31-2.34-.07-3.46-3.86-11.83-10.82-27.13-13-31.84-.3-.71-.7-1.38-1.17-2-2.48-3.06-1.84-7.34-1.19-9.72,.33-1.21,.07-2.52-.7-3.51l-1.32-1.77c-.38-.51-.86-.94-1.42-1.26-3.15-1.78-3.15-5.67-2.87-7.89,.15-1.15-.03-2.31-.52-3.36-11.23-23.74-11.23-50.92-11.23-50.92-4.38-23,71.71-23.08,71.71-23.08l-20.65,58.9-.51,1.48c.07,2.19,5.41,32.91,5.41,32.91,1.08,9.87,7.66,32.91,7.66,32.91Z" fill="#ffffff"></path>
    <path d="M582.99,563.74c-1.14,0-2.06-.41-2.72-1.22-2.13-2.65-.73-8.98,.29-12.52,.3-1.04,.28-2.13-.06-3.16-3.74-11.45-10.32-26.05-12.98-31.79-.29-.69-.67-1.32-1.11-1.91-2.63-3.25-1.93-7.76-1.28-10.16,.29-1.06,.06-2.21-.61-3.07l-1.33-1.78c-.34-.46-.77-.84-1.27-1.12-3.39-1.92-3.41-6.08-3.12-8.39,.14-1.06-.02-2.12-.48-3.08-11.15-23.57-11.28-50.86-11.28-51.13-.58-2.98,.19-5.82,2.28-8.35,12.4-15,67.58-15.23,69.93-15.23h.71s-21.36,60.95-21.36,60.95c.19,2.75,5.35,32.45,5.4,32.75,1.07,9.75,7.58,32.63,7.65,32.86v.02s1.92,7.68,1.92,7.68c.23,.91,.27,1.85,.11,2.78-.42,2.33-1.45,4.5-2.99,6.29-7.73,9.15-26.57,9.56-27.37,9.57-.11,0-.23,.01-.33,.01Zm35.57-151.91c-6.6,.08-57.09,1.12-68.45,14.86-1.89,2.29-2.59,4.86-2.06,7.62,0,.36,.14,27.44,11.19,50.8,.54,1.14,.73,2.39,.56,3.64-.32,2.51-.12,5.84,2.62,7.39,.62,.36,1.15,.83,1.58,1.4l1.32,1.77c.86,1.11,1.15,2.58,.78,3.94-.6,2.21-1.26,6.36,1.1,9.27,.51,.66,.92,1.37,1.24,2.12,2.66,5.75,9.26,20.38,13.02,31.88,.41,1.22,.44,2.52,.07,3.76-.78,2.7-2.39,9.23-.47,11.61,.51,.63,1.24,.91,2.23,.84,.22,0,19.21-.41,26.65-9.22,1.43-1.66,2.39-3.67,2.77-5.82,.14-.79,.11-1.58-.09-2.36l-1.92-7.67c-.16-.54-6.61-23.25-7.67-32.98-.21-1.22-5.34-30.75-5.41-32.95v-.09s.54-1.57,.54-1.57l20.42-58.23Z" fill="#002346"></path>
  </g>
  <g>
    <path d="M584.85,563.16s-.54,13.32-8.77,18.25c0,0-15.76,6.07-11.17,11.27,0,0,4.59,10.68,25.43,3,3.68-.96,6.83-3.33,8.78-6.59,0,0,5.34-7.9,11.07-7.14,1.06,.14,2.14-.07,3.08-.6l3.14-1.73c1.67-.91,2.48-2.87,1.92-4.69l-6.78-22.8s-4.21,8.99-26.7,11.03Z" fill="#1E40AF"></path>
    <path d="M576.91,598.98c-9.25,0-12.07-5.28-12.42-6.04-.81-.95-1.08-1.99-.81-3.09,1.12-4.59,11.78-8.74,12.23-8.92,7.82-4.69,8.45-17.67,8.45-17.8l.02-.44,.44-.04c21.86-1.98,26.25-10.66,26.29-10.75l.56-1.17,7.15,24.04c.62,2.04-.28,4.26-2.16,5.27l-3.14,1.73c-1.02,.57-2.22,.81-3.38,.66-5.36-.72-10.54,6.85-10.59,6.92-2.02,3.37-5.24,5.79-9.07,6.79-5.59,2.06-10.04,2.82-13.56,2.83Zm8.41-35.37c-.17,2.4-1.37,13.66-8.99,18.22-.18,.08-10.69,4.17-11.69,8.26-.2,.8,.01,1.54,.64,2.25l.08,.13c.04,.1,4.71,10.13,24.8,2.73,3.62-.95,6.63-3.21,8.52-6.38,.24-.36,5.61-8.18,11.56-7.38,.95,.12,1.93-.07,2.77-.54l3.14-1.73c1.46-.79,2.17-2.52,1.68-4.11l-6.47-21.75c-1.79,2.43-8.03,8.57-26.06,10.29Z" fill="#002346"></path>
  </g>
  <g>
    <path d="M187.78,282.03s3.22,12-4.46,15.24l9.88,25.23s18.65,2.2,25.23-2.19l-3.29-21.94c-3.91-2.31-6.36-6.46-6.49-11,0,0-9.42,4.96-20.87-5.34Z" fill="#f2b3c1"></path>
    <path d="M203.37,323.56c-5.31,0-9.85-.52-10.22-.57l-.3-.03-10.17-25.96,.45-.19c7.19-3.03,4.2-14.53,4.17-14.65l-.44-1.63,1.25,1.13c11.04,9.93,20.21,5.32,20.3,5.27l.71-.37,.02,.8c.13,4.39,2.46,8.35,6.25,10.58l.2,.12,3.37,22.49-.26,.18c-3.4,2.27-9.8,2.84-15.34,2.84Zm-9.81-1.53c2.37,.25,18.22,1.75,24.33-1.97l-3.21-21.39c-3.75-2.31-6.13-6.21-6.49-10.57-2.33,.88-10.29,2.95-19.61-4.73,.6,3.32,1.31,11.26-4.62,14.15l9.6,24.51Z" fill="#002346"></path>
  </g>
  <g>
    <path d="M215.14,298.37s-2.19-2.48,0-2.89c0,0,12.07-1.87,13.16,4.35,0,0,5.49,31.45-5.48,50.1l-4.35-29.62-3.33-21.94Z" fill="#ffffff"></path>
    <path d="M222.53,351.4l-4.56-31.02-3.31-21.8c-.36-.43-1.26-1.66-.93-2.64,.12-.35,.44-.8,1.31-.96,.53-.08,12.58-1.87,13.74,4.76,.06,.32,5.39,31.85-5.54,50.44l-.72,1.22Zm-3.49-55.69c-2.11,0-3.79,.25-3.83,.26-.2,.04-.47,.12-.53,.3-.13,.39,.39,1.28,.83,1.77l.1,.11,.02,.15,3.33,21.94,4.14,28.17c9.8-18.41,4.76-48.18,4.71-48.49-.62-3.53-5.29-4.2-8.76-4.2Z" fill="#002346"></path>
  </g>
  <g>
    <path d="M209.65,434.41c-.06,8.96-4.26,14.48-9.05,17.86-8.08,5.69-18.79,5.79-27.38,.9-14.78-8.41-15.04-24.83-15.05-25.47,0,0,0,0,0,0v-.14c-.15-5.32,.4-10.64,1.65-15.82l4.86-20.11c-8.77-2.19-9.87-15.36-9.87-15.36l-1.13-25.78c-.11-3.91-1.22-7.72-3.2-11.09-5.56-9.1-3.33-21.28-3.33-21.28,4.39-20.85,23.4-20.85,23.4-20.85l11.69,16.48,20.84,49.37s2.84,20.82,4.13,37.85c0,0,2.6,19.35,2.45,33.44Z" fill="#1E40AF"></path>
    <path d="M186.39,457.18c-4.58,0-9.23-1.19-13.43-3.58-14.59-8.3-15.28-24.12-15.31-25.89v-.14c-.16-5.37,.41-10.74,1.67-15.95l4.74-19.63c-8.58-2.58-9.72-15.13-9.77-15.67l-1.13-25.8c-.11-3.82-1.19-7.57-3.13-10.86-5.59-9.15-3.48-21.12-3.39-21.62,4.42-21.02,23.7-21.26,23.89-21.26,.16,0,.31,.08,.41,.21l11.69,16.48s.04,.06,.05,.09l20.84,49.37s.03,.08,.03,.13c.03,.21,2.86,21.03,4.13,37.88,.02,.17,2.6,19.51,2.45,33.48h0c-.06,7.83-3.17,13.97-9.27,18.27-4.25,2.99-9.33,4.5-14.49,4.5Zm-16.11-159.41c-2.34,.08-18.62,1.31-22.66,20.45-.02,.11-2.13,12.09,3.27,20.92,2.03,3.44,3.16,7.36,3.27,11.34l1.13,25.77c0,.11,1.17,12.82,9.49,14.9,.27,.07,.43,.34,.37,.6l-4.86,20.11c-1.24,5.13-1.79,10.41-1.64,15.69v.15c.04,1.73,.72,17.03,14.8,25.05,8.61,4.9,19.14,4.55,26.85-.87,5.81-4.09,8.79-9.97,8.84-17.46h0c.15-13.9-2.42-33.18-2.45-33.37-1.24-16.38-3.94-36.48-4.12-37.78l-20.79-49.26-11.51-16.22Z" fill="#002346"></path>
  </g>
  <g>
    <path d="M313.19,525.53c-.4,2.25-1.75,4.23-3.7,5.42-4.16,2.11-8.65,3.46-13.28,4h0c-1.25,.16-2.59,.3-4,.36-1.42,.07-2.66-.96-2.85-2.37-.52-3.82-1.21-11.17,.37-15.12,0,0-21.94-34-27.43-57l-9.73-23.47c-.81-1.99-2.61-3.41-4.73-3.74-5.07-.79-14.54-.82-21,8-1.83,2.47-4.31,4.39-7.15,5.56-1.82,.78-3.68,1.44-5.57,2-3.6,1.04-7.32,1.6-11.07,1.66,0,0,12.64-10.91,4.13-49.85l7,.47,65.71,4.44,31.81,105.34s2.91,8.17,1.49,14.3Z" fill="#ffffff"></path>
    <path d="M292.06,535.81c-1.6,0-2.99-1.2-3.2-2.81-.53-3.92-1.19-11.04,.31-15.13-1.87-2.94-22.14-35.07-27.36-56.94l-9.71-23.39c-.74-1.82-2.41-3.13-4.35-3.44-4.96-.78-14.22-.79-20.52,7.8-1.89,2.54-4.44,4.52-7.36,5.73-1.82,.78-3.72,1.46-5.62,2.02-3.64,1.06-7.41,1.62-11.2,1.68l-1.37,.02,1.03-.9c.12-.11,12.3-11.26,3.97-49.37l-.14-.65,73.72,4.98,.1,.33,31.81,105.34c.11,.32,2.93,8.34,1.5,14.55-.43,2.39-1.86,4.48-3.93,5.75-4.25,2.16-8.78,3.52-13.48,4.07-1.54,.2-2.82,.31-4.04,.36-.06,0-.11,0-.17,0Zm-48.37-103.03c1.59,0,3.02,.14,4.22,.33,2.28,.36,4.24,1.91,5.12,4.04l9.73,23.47c5.43,22.73,27.17,56.58,27.39,56.92l.14,.22-.1,.24c-1.59,3.98-.77,11.72-.34,14.87,.15,1.15,1.19,1.99,2.33,1.94,1.19-.05,2.45-.16,3.96-.36,4.59-.54,9-1.86,13.12-3.95,1.79-1.1,3.06-2.95,3.43-5.06v-.03c1.38-5.91-1.44-13.94-1.47-14.02l-31.72-105.03-71.7-4.84c7.01,32.7-.82,45.47-3.57,48.77,3.3-.15,6.57-.68,9.74-1.6,1.86-.55,3.72-1.21,5.51-1.98,2.77-1.14,5.17-3,6.95-5.4,5.08-6.93,11.98-8.53,17.25-8.53Z" fill="#002346"></path>
  </g>
  <g>
    <path d="M217.33,551.75s12.07,6.59,21.95,3.29l21.19-98.77-7.9-18.92s-.89-6.42-13.68-3.59c-4.88,.92-9.19,3.74-12,7.83l-1.85,2.1-7.71,108.06Z" fill="#ffffff"></path>
    <path d="M233.15,556.47c-8.09,0-15.66-4.07-16.06-4.29l-.28-.15,.02-.32,7.72-108.23,1.96-2.23c2.87-4.18,7.24-7.04,12.28-7.99,5.45-1.21,9.51-.93,12.04,.83,1.75,1.22,2.14,2.75,2.21,3.11l7.94,19.01-.03,.15-21.25,99.05-.27,.09c-2.05,.69-4.19,.96-6.29,.96Zm-15.3-5.02c1.84,.93,12.32,5.92,21,3.2l21.1-98.34-7.87-18.9c0-.05-.23-1.42-1.84-2.52-1.58-1.08-4.81-2.07-11.24-.65-4.79,.91-8.94,3.62-11.7,7.62l-1.78,2.02-7.67,107.56Z" fill="#002346"></path>
  </g>
  <g>
    <path d="M335.39,555.84h-19.69c-1.27,0-2.4-.8-2.82-2-1.16-3.12-3.56-9.14-5.63-11.73-.2-.22-.48-.35-.78-.36h-3c-.6,0-1.09,.48-1.1,1.08,0,.01,0,.02,0,.03l.23,12.94h-3.52l-2.79-20.93h0c4.63-.54,9.12-1.89,13.28-4,1.95-1.19,3.3-3.17,3.7-5.42h0c3.3,10.18,10.71,18.51,20.42,23,0,0,8.96,4.86,1.7,7.39Z" fill="#1E40AF"></path>
    <path d="M335.39,556.34h-19.69c-1.48,0-2.8-.94-3.29-2.33-.97-2.6-3.45-8.96-5.55-11.58-.09-.1-.24-.17-.4-.17h-2.99c-.33,0-.59,.26-.59,.58l.23,12.96c0,.13-.05,.26-.14,.36-.09,.1-.22,.15-.36,.15h-3.52c-.25,0-.46-.19-.5-.43l-2.79-20.93c-.02-.13,.02-.27,.1-.37,.08-.11,.2-.17,.34-.19,4.58-.53,9-1.86,13.11-3.95,1.79-1.1,3.06-2.95,3.43-5.06,.04-.23,.23-.4,.46-.41,.24-.02,.44,.13,.51,.34,3.25,10.01,10.6,18.29,20.15,22.7,.54,.29,5.03,2.81,4.82,5.43-.1,1.22-1.16,2.19-3.17,2.89-.05,.02-.11,.03-.17,.03Zm-28.92-15.09c.45,.01,.86,.2,1.15,.53,2.13,2.66,4.5,8.59,5.73,11.89,.35,1,1.3,1.67,2.35,1.67h19.6c1.08-.39,2.34-1.04,2.42-2,.14-1.68-3.04-3.78-4.27-4.46-9.3-4.29-16.57-12.18-20.13-21.77-.67,1.72-1.89,3.2-3.49,4.18-4.1,2.08-8.46,3.42-12.98,4.01l2.67,20h2.57l-.22-12.43c0-.92,.72-1.62,1.59-1.62h3.01Z" fill="#002346"></path>
  </g>
  <g>
    <path d="M219.14,552.67s-10.58,20-10.58,26.55c0,0,0,15.36,6.58,13.17,0,0,15.36-4.39,17.55-16.46l4.23-20.3s-7.19,1.2-17.78-2.96Z" fill="#1E40AF"></path>
    <path d="M213.91,593.1c-.75,0-1.44-.23-2.07-.68-3.74-2.69-3.78-12.78-3.78-13.21,0-6.6,10.2-25.96,10.64-26.78,.12-.23,.39-.32,.62-.23,10.32,4.05,17.44,2.94,17.51,2.93,.16-.03,.33,.03,.44,.15s.16,.29,.13,.45l-4.23,20.3c-2.22,12.22-17.75,16.79-17.9,16.84-.47,.16-.93,.24-1.37,.24Zm5.47-39.81c-1.47,2.83-10.32,20.07-10.32,25.92,0,.1,.04,10,3.37,12.39,.74,.53,1.57,.63,2.56,.3,.17-.05,15.11-4.46,17.22-16.07l4.09-19.63c-2.04,.19-8.31,.38-16.91-2.91Z" fill="#002346"></path>
  </g>
  <g>
    <polygon points="177.13 404.3 129.22 584.71 146.68 584.71 203.07 404.3 177.13 404.3" fill="#fff"></polygon>
    <path d="M147.05,585.21h-18.48l.17-.63,48.01-180.78h27l-.2,.65-56.5,180.76Zm-17.18-1h16.44l56.08-179.41h-24.88l-47.64,179.41Z" fill="#002346"></path>
  </g>
  <g>
    <polygon points="577.54 404.3 625.45 584.71 607.99 584.71 551.6 404.3 577.54 404.3" fill="#fff"></polygon>
    <path d="M626.1,585.21h-18.48l-.11-.35-56.59-181.06h27l.1,.37,48.08,181.04Zm-17.74-1h16.44l-47.64-179.41h-24.88l56.08,179.41Z" fill="#002346"></path>
  </g>
  <g>
    <polygon points="585.17 330.18 491.88 330.18 503.72 386.68 599.12 386.13 585.17 330.18" fill="#fff"></polygon>
    <path d="M503.32,387.18l-12.05-57.5h94.3l14.2,56.95-96.44,.56Zm-10.82-56.5l11.63,55.5,94.36-.54-13.7-54.95h-92.28Z" fill="#002346"></path>
  </g>
  <g>
    <path d="M491.88,330.18l-1.04-3.33c-.16-.52,.23-1.05,.77-1.05h91.71l1.85,4.38h-93.29Z" fill="#ffffff"></path>
    <path d="M585.92,330.68h-94.41l-1.15-3.69c-.12-.4-.05-.82,.19-1.16,.25-.34,.63-.53,1.05-.53h92.05l2.27,5.38Zm-93.68-1h92.17l-1.43-3.38h-91.38c-.14,0-.22,.09-.25,.12-.03,.05-.08,.14-.04,.27l.93,2.98Z" fill="#002346"></path>
  </g>
  <g>
    <path d="M490.43,325.93l-1.3,4.25,11.6,59.71,100,.63-1.64-4.39-95.39,.55c-3.68-15.37-6.09-27.8-9.38-43.88-.4-1.93-1.55-8.81-2.2-12.07-.44-1.63-.98-3.23-1.6-4.8-.02-.04-.08-.04-.09,0Z" fill="#ffffff"></path>
    <path d="M601.45,391.02l-101.14-.64-11.7-60.23,1.44-4.71,.75-.07,.18,.35c.63,1.59,1.17,3.23,1.62,4.86,.35,1.76,.84,4.53,1.27,6.98,.38,2.17,.75,4.22,.93,5.12,.56,2.75,1.1,5.38,1.62,7.95,2.5,12.31,4.66,22.96,7.67,35.53l95.34-.55,2.02,5.4Zm-100.31-1.63l98.86,.62-1.26-3.38-95.44,.55-.09-.39c-3.05-12.75-5.24-23.5-7.76-35.95-.52-2.56-1.06-5.2-1.62-7.95-.19-.92-.55-2.97-.94-5.15-.43-2.44-.92-5.2-1.26-6.92-.32-1.16-.69-2.33-1.11-3.49l-.88,2.87,11.5,59.19Z" fill="#002346"></path>
  </g>
  <g>
    <path d="M681.4,296.17v7.2s11-7.2,18.65-6.1v-11.37l-11-1.79-7.65,12.06Z" fill="#f2b3c1"></path>
    <path d="M680.9,304.29v-8.27l.08-.12,7.83-12.34,11.75,1.91v12.37l-.57-.08c-7.37-1.05-18.2,5.95-18.31,6.02l-.77,.51Zm1-7.98v6.15c2.59-1.58,11.06-6.35,17.65-5.76v-10.38l-10.25-1.67-7.4,11.66Z" fill="#002346"></path>
  </g>
  <g>
    <rect x="664.67" y="252.56" width="29.65" height="47.07" rx="14.74" ry="14.74" transform="translate(75.81 -140.45) rotate(12.49)" fill="#f2b3c1"></rect>
    <path d="M677.68,299.95c-1.09,0-2.19-.12-3.3-.36l-.17-.04c-8.2-1.82-13.4-9.97-11.58-18.18l3.81-17.18c.88-3.97,3.26-7.37,6.69-9.56,3.43-2.19,7.51-2.91,11.49-2.03l.17,.04c8.2,1.82,13.4,9.97,11.58,18.18l-3.81,17.18c-1.57,7.1-7.89,11.95-14.88,11.95Zm-3.08-1.34c7.67,1.7,15.28-3.16,16.98-10.82l3.81-17.18c1.7-7.67-3.16-15.28-10.82-16.98l-.17-.04c-3.71-.83-7.52-.15-10.73,1.89-3.21,2.04-5.43,5.21-6.25,8.93l-3.81,17.18c-1.7,7.67,3.16,15.28,10.82,16.98l.17,.04Z" fill="#002346"></path>
  </g>
  <g>
    <path d="M670.47,265.46c1.57,2.75,4.51,4.42,7.68,4.38,0,0-.57-3.47,1.36-3.38,0,0,5.68,11,15.87,10v16s13.48,3.79,22.26-17.05c0,0,12.07-21.94-7.68-30.72,0,0-21.94-7.68-32.91,1.1,0,0-20.85,9.87-17.55,17.55s5.44,5.41,10.97,2.12Z" fill="#002346"></path>
    <path d="M697.81,293.2c-1.56,0-2.53-.25-2.56-.26l-.36-.1v-15.84c-9.12,.52-14.65-8.28-15.65-10.02-.11,.03-.2,.09-.28,.18-.45,.51-.43,1.86-.31,2.6l.09,.57h-.58s-.09,0-.13,0c-3.13,0-6.04-1.59-7.73-4.2-.34,.21-.67,.41-.99,.6-2.55,1.56-4.39,2.68-6.16,2.12-1.48-.47-2.72-2.07-4.12-5.33-3.4-7.91,16.32-17.49,17.74-18.17,11.07-8.79,32.43-1.46,33.34-1.15,5.5,2.44,9.09,6.1,10.7,10.88,3.21,9.55-2.5,20.11-2.74,20.55-6.53,15.5-15.82,17.55-20.27,17.55Zm-1.93-1.14c2.21,.44,13.5,1.66,21.3-16.85,.08-.15,5.77-10.68,2.69-19.8-1.52-4.5-4.92-7.96-10.12-10.26-.18-.06-21.77-7.47-32.39,1.03l-.1,.06c-.2,.1-20.38,9.75-17.31,16.9,1.26,2.93,2.34,4.4,3.5,4.77,1.34,.43,3.01-.6,5.33-2.02,.45-.27,.92-.56,1.42-.86l.44-.26,.25,.44c1.39,2.43,3.92,3.97,6.69,4.12-.06-.78-.04-2.1,.62-2.83,.33-.38,.79-.56,1.33-.53h.29s.13,.27,.13,.27c.05,.11,5.68,10.7,15.38,9.73l.55-.05v16.15Z" fill="#002346"></path>
  </g>
  <g>
    <ellipse cx="695.51" cy="282.41" rx="7.13" ry="4.53" transform="translate(222.09 864.95) rotate(-73)" fill="#f2b3c1"></ellipse>
    <path d="M694.3,289.85c-.35,0-.69-.05-1.02-.15-1.33-.41-2.32-1.57-2.79-3.28-.45-1.63-.38-3.58,.21-5.49,1.23-4.02,4.38-6.64,7.04-5.83,1.33,.41,2.32,1.57,2.79,3.28,.45,1.63,.38,3.58-.21,5.49-.58,1.91-1.61,3.57-2.9,4.67-1.01,.86-2.09,1.31-3.12,1.31Zm2.41-13.9c-1.96,0-4.11,2.17-5.05,5.27-.53,1.73-.6,3.48-.2,4.93,.38,1.37,1.13,2.29,2.12,2.59,.98,.3,2.12-.04,3.2-.96,1.14-.98,2.06-2.47,2.59-4.2,.53-1.73,.6-3.48,.2-4.93-.38-1.37-1.13-2.29-2.12-2.59-.24-.07-.49-.11-.74-.11Z" fill="#002346"></path>
  </g>
  <g>
    <path d="M673.72,308.24s16.45-13.16,29.62-11c0,0,10.31-1.34,8.45,5.36l-38.07,5.64Z" fill="#ffffff"></path>
    <path d="M671.96,309l1.45-1.16c.68-.54,16.71-13.23,29.94-11.11,.73-.08,6.12-.62,8.28,1.87,.9,1.04,1.12,2.43,.64,4.13l-.09,.31-.32,.05-39.9,5.91Zm28.35-11.5c-9.8,0-20.7,7.09-24.7,9.95l35.77-5.3c.28-1.23,.11-2.18-.51-2.9-1.92-2.21-7.41-1.53-7.47-1.52h-.07s-.07,0-.07,0c-.96-.16-1.95-.23-2.95-.23Z" fill="#002346"></path>
  </g>
  <g>
    <path d="M736.25,327.99l1.46-6.58c.76-3.2,.62-6.56-.39-9.69-5.09-15.09-25.24-9-25.53-9.09s-38.07,5.61-38.07,5.61c-14.06-.67-20.77,8.5-23.86,15.72-2.8,6.55-6.03,12.92-9.98,18.85-1.95,2.94-3.81,5.98-4.9,8.39-1.18,2.62-2.72,5.05-4.46,7.33-1.26,1.65-2.46,4.07-2.85,7.48-.32,2.8-2.48,5.03-5.28,5.38l-47.41,5.92v12.53h55.15l106.12-61.86Z" fill="#1E40AF"></path>
    <path d="M630.27,390.35h-55.79v-13.47l47.85-5.98c2.55-.32,4.55-2.35,4.84-4.94,.35-3.02,1.34-5.62,2.95-7.73,1.88-2.45,3.32-4.82,4.41-7.23,.96-2.14,2.62-4.98,4.94-8.46,3.59-5.4,6.84-11.54,9.94-18.77,3.29-7.68,10.18-16.72,24.34-16.03,32.42-4.9,37.22-5.54,38.02-5.59v-.02c.06,0,.21-.04,.44-.09,7.77-1.74,21.43-2.81,25.59,9.52,1.04,3.23,1.18,6.67,.4,9.97l-1.51,6.79-.19,.11-106.24,61.93Zm-54.79-1h54.52l105.81-61.68,1.41-6.37c.74-3.12,.61-6.38-.38-9.43-3.91-11.59-16.98-10.52-24.42-8.86-.42,.09-.56,.12-.67,.12-1.42,.11-27.8,4.07-37.96,5.6-13.67-.65-20.31,8.04-23.47,15.43-3.12,7.29-6.4,13.48-10.03,18.93-2.28,3.43-3.92,6.23-4.86,8.31-1.12,2.48-2.6,4.91-4.52,7.43-1.5,1.96-2.43,4.4-2.75,7.24-.35,3.05-2.7,5.44-5.71,5.82l-46.97,5.87v11.59Z" fill="#002346"></path>
  </g>
  <g>
    <path d="M541.52,389.89h33.46v-7.28l-12-2.71c-2.99-.67-6.13-.1-8.69,1.59l-12.77,8.4Z" fill="#f2b3c1"></path>
    <path d="M575.48,390.39h-35.63l14.17-9.32c2.66-1.75,5.97-2.36,9.07-1.66l12.39,2.8v8.18Zm-32.29-1h31.29v-6.38l-11.61-2.62c-2.84-.63-5.87-.08-8.3,1.52l-11.38,7.48Z" fill="#002346"></path>
  </g>
  <g>
    <path d="M166.32,391.07h56l-2.19-19.64-41.19-3.95s1.08-28.08-8.42-45.87" fill="#1E40AF"></path>
    <path d="M222.32,391.57h-56c-.28,0-.5-.22-.5-.5s.22-.5,.5-.5h55.44l-2.08-18.68-40.79-3.91c-.26-.03-.46-.25-.45-.52,.01-.28,.96-28.15-8.36-45.61-.13-.24-.04-.55,.21-.68,.24-.13,.54-.04,.68,.21,8.78,16.44,8.57,41.87,8.49,45.65l40.73,3.91c.24,.02,.42,.21,.45,.44l2.19,19.64c.02,.14-.03,.28-.12,.39-.1,.11-.23,.17-.37,.17Z" fill="#002346"></path>
  </g>
  <g>
    <path d="M183.32,297.27c-4.14-1.47-8.66-1.47-12.8,0,.61,3.22,1.32,6.55,2.15,10,1.13,4.69,2.7,10.52,4.68,16.32,.97,2.78,2.32,5.41,4,7.83l21.77,31.72s-3.29-28.53-9.87-40.6l-9.93-25.27Z" fill="#ffffff"></path>
    <path d="M203.85,365.08l-22.91-33.38c-1.71-2.45-3.07-5.13-4.06-7.95-1.69-4.95-3.27-10.46-4.7-16.37-.83-3.45-1.55-6.82-2.15-10.02l-.08-.42,.4-.14c4.23-1.5,8.9-1.5,13.13,0l.21,.08,10.01,25.48c6.52,11.96,9.77,39.56,9.9,40.72l.23,2Zm-32.75-67.48c.58,3.06,1.28,6.27,2.06,9.55,1.42,5.88,2.99,11.36,4.67,16.28,.95,2.73,2.28,5.33,3.94,7.71l20.6,30.02c-.9-6.74-4.11-28.39-9.55-38.38l-9.87-25.11c-3.83-1.3-8.01-1.32-11.85-.06Z" fill="#002346"></path>
  </g>
  <g>
    <polygon points="331.73 325.8 300.56 391.24 207.58 391.24 230.5 325.8 331.73 325.8" fill="#ffffff"></polygon>
    <path d="M300.88,391.74h-94l23.27-66.44h102.38l-31.65,66.44Zm-92.59-1h91.96l30.69-64.44h-100.08l-22.57,64.44Z" fill="#002346"></path>
  </g>
  <g>
    <circle cx="266.87" cy="357.86" r="6.94" fill="#fff"></circle>
    <path d="M266.87,365.3c-4.1,0-7.44-3.34-7.44-7.44s3.34-7.44,7.44-7.44,7.44,3.34,7.44,7.44-3.34,7.44-7.44,7.44Zm0-13.88c-3.55,0-6.44,2.89-6.44,6.44s2.89,6.44,6.44,6.44,6.44-2.89,6.44-6.44-2.89-6.44-6.44-6.44Z" fill="#002346"></path>
  </g>
  <g>
    <path d="M630.24,390.52c-5.31,11.71-8.23,16.71-9.49,18.65H118.6c-2.42,0-4.38-1.95-4.39-4.37,0,0,0,0,0-.01v-9.88c0-2.42,1.97-4.39,4.39-4.39h511.64Z" fill="#e6e7e8"></path>
    <path d="M118.59,409.67c-2.69,0-4.87-2.18-4.88-4.87v-9.89c0-2.7,2.19-4.89,4.89-4.89H631.02l-.32,.71c-5.29,11.68-8.24,16.74-9.53,18.72l-.15,.23H118.59Zm0-18.65c-2.15,0-3.89,1.75-3.89,3.89v9.88c0,2.14,1.75,3.88,3.88,3.88h501.89c1.31-2.06,4.11-6.95,8.99-17.65H118.6Z" fill="#002346"></path>
  </g>
  <g>
    <path d="M340.61,248.1c-1.7-2.34-3.88-4.3-6.39-5.74-2.22-1.28-4.7-2.05-7.25-2.26-2.03-.15-4.02-.6-5.91-1.35-1.9-.76-2.83-2.92-2.07-4.82,.42-1.05,1.3-1.85,2.39-2.18,3-1,8.59-1.36,18.25,2.19,0,0,1.67,.07-1.62-2.87,0,0-4-3.68-2.45-6.88,.07-.17,.27-.25,.43-.17,.04,.02,.08,.05,.12,.08,1.63,1.98,3.68,3.57,6,4.65,1.45,.56,2.75,1.46,3.79,2.62,2.25,2.8,3.53,6.26,3.65,9.85l-8.94,6.88Z" fill="#f2b3c1"></path>
    <path d="M340.51,248.81l-.3-.42c-1.67-2.3-3.77-4.18-6.23-5.6-2.14-1.23-4.58-1.99-7.04-2.2-2.07-.15-4.11-.62-6.05-1.38-1.05-.42-1.87-1.22-2.31-2.25-.44-1.03-.46-2.18-.04-3.22,.48-1.2,1.47-2.1,2.71-2.47,2.97-.99,8.53-1.42,18.2,2.07-.17-.3-.62-.88-1.76-1.9-.18-.17-4.26-3.98-2.57-7.47,.17-.4,.66-.6,1.08-.42,.12,.05,.21,.12,.29,.21,1.59,1.92,3.6,3.48,5.84,4.53,1.49,.57,2.87,1.52,3.95,2.74,2.32,2.89,3.65,6.49,3.78,10.17v.26s-9.54,7.35-9.54,7.35Zm-14.32-17.25c-2.01,0-3.52,.29-4.64,.66-.96,.29-1.71,.97-2.08,1.89-.32,.8-.31,1.67,.03,2.46,.34,.79,.96,1.4,1.76,1.72,1.85,.73,3.78,1.17,5.76,1.31,2.61,.22,5.19,1.02,7.46,2.33,2.44,1.4,4.54,3.24,6.24,5.47l8.33-6.41c-.17-3.37-1.42-6.67-3.53-9.3-.96-1.08-2.2-1.94-3.58-2.47-2.32-1.08-4.38-2.66-6.02-4.58-1.06,2.8,2.4,6.03,2.44,6.06,2.23,1.99,2.34,2.75,2.14,3.22-.15,.38-.55,.51-.88,.52l-.15-.03c-5.85-2.15-10.16-2.85-13.27-2.85Zm9.84-7.18s0,0,0,0c0,0,0,0,0,0Z" fill="#002346"></path>
  </g>
  <g>
    <rect x="401.52" y="171.32" width="35" height="48" rx="17.5" ry="17.5" fill="#f2b3c1"></rect>
    <path d="M419.02,219.82c-9.92,0-18-8.08-18-18v-13c0-9.92,8.08-18,18-18s18,8.08,18,18v13c0,9.92-8.08,18-18,18Zm0-48c-9.37,0-17,7.63-17,17v13c0,9.37,7.63,17,17,17s17-7.63,17-17v-13c0-9.37-7.63-17-17-17Z" fill="#002346"></path>
  </g>
  <g>
    <path d="M397.37,191.75s-.25,7.89,3.84,11.14c.07,.06,.17,.05,.23-.02,.03-.03,.04-.07,.03-.12-.36-1.17-.09-4.61,.5-12.07,0-.05-.88-.37-4.6,1.07Z" fill="#002346"></path>
    <path d="M401.31,203.42c-.15,0-.29-.05-.41-.15-4.24-3.37-4.04-11.21-4.03-11.54v-.33s.32-.12,.32-.12c2.66-1.03,4.51-1.4,5.05-1.03l.22,.15v.27c-.56,7.23-.85,10.84-.51,11.92l.02,.1c.02,.17-.04,.34-.15,.48-.13,.16-.32,.24-.51,.24Zm.21-.93s0,0,0,0c0,0,0,0,0,0Zm-3.65-10.4c.01,1.39,.23,6.84,2.96,9.77-.11-1.68,.14-4.86,.6-10.74-.48,.03-1.52,.21-3.57,.97Z" fill="#002346"></path>
  </g>
  <g>
    <path d="M434.55,215.78v.3c-1.09,16.45,11.01,35.1,11.01,35.1l7.68,14.27c6.58,17.55-2.75,27.42-2.75,27.42,9.33,3.29,13.72-7.68,13.72-7.68,1.09,4.39-2.2,7.68-2.2,7.68,2.31-.32,4.53-1.11,6.51-2.34,2.83-1.82,4.76-4.75,5.33-8.06,2.41-12.48-2.12-25.29-11.84-33.48-6.58-4.39-6.58-13.16-6.58-13.16,1.1-14.27-1.1-38.4-1.1-38.4-3.29-35.11-18.1-31.58-18.1-31.58-24.68-22.8-46.63,19.51-46.63,19.51-2.19,6.58,4.39,4.39,4.39,4.39,3.29,5.48,13.17-2.2,13.17-2.2,0,0,1.1,12.07,21.94-8.77,0,0,1.1,12.38,7.13,12.77-.02,0,.52,3.31-.46,8.66-.93,5.14-1.4,10.35-1.22,15.57Z" fill="#002346"></path>
    <path d="M453.88,293.99c-1.1,0-2.28-.19-3.55-.64l-.72-.25,.53-.56c.09-.1,9.03-9.87,2.65-26.9l-7.65-14.21c-.1-.15-12.16-18.94-11.06-35.37v-.25c-.18-4.96,.23-10.23,1.22-15.67,.53-2.92,.7-5.78,.49-8.12-5.04-.77-6.64-9.16-7.05-12.14-9.07,8.93-15.57,12.77-19.35,11.4-1.62-.58-2.28-1.96-2.54-2.85-1.74,1.23-6.63,4.39-10.25,3.72-1.18-.22-2.13-.82-2.81-1.79-.89,.23-3.15,.66-4.36-.56-.9-.9-1-2.44-.29-4.57,.53-1.03,12.33-23.46,28.62-26.31,6.46-1.13,12.73,1.03,18.64,6.42,.88-.13,3.76-.31,7.05,2.05,4.19,3,9.57,10.65,11.39,30.02,.02,.24,2.19,24.34,1.1,38.49,0,.05,.09,8.52,6.36,12.71,9.89,8.33,14.5,21.34,12.05,33.99-.59,3.43-2.61,6.49-5.55,8.39-2.07,1.28-4.32,2.09-6.71,2.42l-1.46,.2,1.04-1.05s2.32-2.38,2.27-5.64c-1.38,2.47-4.69,7.11-10.05,7.11Zm-2.53-1.37c8.29,2.34,12.23-7.2,12.4-7.61l.58-1.43,.37,1.5c.78,3.13-.51,5.7-1.46,7.07,1.77-.39,3.46-1.07,5.02-2.04,2.69-1.74,4.56-4.55,5.1-7.72,2.38-12.3-2.1-24.95-11.67-33.01-6.68-4.45-6.76-13.17-6.76-13.54,1.08-14.1-1.08-38.11-1.1-38.36-1.78-18.95-6.93-26.38-10.94-29.27-3.51-2.53-6.52-1.88-6.55-1.87l-.26,.06-.2-.18c-5.72-5.29-11.77-7.42-17.97-6.34-15.8,2.76-27.76,25.48-27.88,25.71-.37,1.13-.69,2.72,.07,3.48,.88,.89,2.98,.45,3.71,.21l.38-.13,.21,.34c.55,.92,1.32,1.46,2.35,1.65,3.94,.73,10.02-3.94,10.08-3.99l.72-.56,.09,.9c0,.09,.23,2.16,2.07,2.82,1.96,.7,7.04,.09,19.02-11.9l.76-.76,.09,1.07c.01,.12,1.13,11.96,6.66,12.31l1.05,.07-.56,.61c.24,2.52,.07,5.53-.48,8.58-.98,5.37-1.39,10.57-1.22,15.46v.3c-1.07,16.14,10.81,34.66,10.93,34.84l7.7,14.31c5.74,15.29-.48,24.98-2.34,27.4Z" fill="#002346"></path>
  </g>
  <g>
    <ellipse cx="437.68" cy="194.99" rx="6.02" ry="4.07" transform="translate(118.72 552.55) rotate(-72.28)" fill="#f2b3c1"></ellipse>
    <path d="M436.72,201.36c-.35,0-.69-.05-1.02-.16-1.2-.38-2.1-1.41-2.53-2.89-.41-1.41-.36-3.08,.16-4.71h0c1.1-3.42,3.93-5.59,6.34-4.82,2.4,.77,3.46,4.18,2.37,7.6-.52,1.63-1.44,3.02-2.6,3.93-.88,.69-1.81,1.04-2.72,1.04Zm-2.44-7.46c-.46,1.44-.52,2.9-.16,4.12,.34,1.15,1,1.94,1.88,2.22,.87,.28,1.87,.02,2.82-.72,1-.79,1.8-2.01,2.26-3.45,.93-2.9,.16-5.75-1.72-6.34-1.87-.6-4.15,1.27-5.08,4.17h0Z" fill="#002346"></path>
  </g>
  <path d="M375.38,278.03c-.17,0-.33-.08-.42-.24l-8.85-14.27c-.15-.24-.07-.54,.16-.69,.23-.14,.54-.07,.69,.16l8.85,14.27c.15,.24,.07,.54-.16,.69-.08,.05-.17,.08-.26,.08Z" fill="#002346"></path>
  <path d="M391.77,279.12c-.28,0-.5-.22-.5-.5v-23.54c0-.28,.22-.5,.5-.5s.5,.22,.5,.5v23.54c0,.28-.22,.5-.5,.5Z" fill="#002346"></path>
  <g>
    <path d="M517.96,241.75l.68-.55c1.53-1.23,3.69-1.31,5.3-.19l7.69,5.33c2.09,1.45,2.53,4.35,.97,6.35h0s-9.13-3.94-14.64-10.94Z" fill="#fff"></path>
    <path d="M532.76,253.3l-.36-.15c-.38-.16-9.31-4.07-14.83-11.09l-.31-.39,1.07-.86c1.69-1.36,4.12-1.45,5.9-.21l7.69,5.33c1.12,.78,1.86,1.95,2.06,3.3,.21,1.35-.14,2.69-.98,3.77l-.24,.31Zm-14.1-11.48c4.76,5.8,12.06,9.44,13.77,10.24,.5-.8,.7-1.74,.56-2.68-.16-1.08-.75-2.01-1.64-2.63l-7.69-5.33c-1.42-.99-3.35-.92-4.7,.17l-.29,.24Z" fill="#002346"></path>
  </g>
  <path d="M432.59,338.77c-12.49,0-16.01-7.72-16.05-7.81-.11-.25,0-.55,.26-.66,.25-.11,.55,0,.66,.26,.17,.38,4.26,9.23,20.32,6.79,.27-.04,.53,.15,.57,.42,.04,.27-.15,.53-.42,.57-1.94,.29-3.72,.42-5.34,.42Z" fill="#002346"></path>
  <g>
    <path d="M751.31,372.6c-.76,16.62-4,48.94-17.25,73.87,0,0-15.36,25.24-36.21,25.24h-97.09c-3.17-.15-6.29-.87-9.2-2.13h0c-5.71-2.37-10.41-6.66-13.29-12.13,0,0-15.36-24.14,7.68-31.82,0,0,3.79-2.27,13.24-3,8.04-.56,15.4-4.69,20.07-11.26,.24-.34,.47-.7,.7-1.06,.28-.35,.55-.72,.79-1.1,1.26-1.94,4.18-6.94,9.49-18.65,2.77-6.09,6.18-14,10.34-24.21,0,0,17.57-64,71.43-51.72,0,0,40.54,10.49,39.52,47.06,0-.04,.1,4.13-.22,10.91Z" fill="#fff"></path>
    <path d="M697.85,472.21h-97.09c-3.27-.15-6.42-.88-9.4-2.17-5.8-2.4-10.61-6.79-13.53-12.36-.29-.46-7.64-12.18-4.14-22.05,1.72-4.84,5.77-8.36,12.05-10.46,.5-.28,4.42-2.35,13.41-3.04,7.92-.55,15.1-4.58,19.7-11.05,.23-.33,.46-.69,.68-1.04,.3-.38,.56-.73,.79-1.1,1.27-1.96,4.19-6.97,9.46-18.59,3.02-6.64,6.5-14.78,10.33-24.19,.03-.1,4.53-16.21,15.58-30.58,10.24-13.31,28.34-27.84,56.42-21.44,.42,.11,40.93,11.02,39.91,47.56h-.01c.04,.39,.03,1.18,.02,2.92-.01,1.72-.07,4.51-.23,8-.78,16.96-4.05,49.15-17.31,74.08-.17,.28-15.76,25.51-36.65,25.51Zm.68-158.67c-16.34,0-30.43,7.57-42.02,22.63-10.95,14.22-15.41,30.16-15.45,30.32-3.86,9.48-7.34,17.64-10.37,24.28-5.29,11.67-8.24,16.74-9.53,18.72-.25,.39-.53,.78-.82,1.14-.2,.32-.43,.69-.68,1.03-4.77,6.72-12.22,10.9-20.45,11.47-9.18,.71-12.98,2.91-13.02,2.93l-.1,.04c-6,2-9.86,5.32-11.48,9.86-3.34,9.4,3.99,21.1,4.06,21.21,2.84,5.39,7.47,9.62,13.06,11.94,2.87,1.25,5.91,1.95,9.03,2.09h97.07c20.32,0,35.63-24.75,35.78-25,13.15-24.74,16.41-56.75,17.18-73.63h0c.25-5.37,.24-9.1,.23-10.38h-.02v-.52c1.01-35.74-38.73-46.46-39.13-46.56-4.6-1.05-9.06-1.57-13.35-1.57Z" fill="#002346"></path>
  </g>
  <g>
    <path d="M218.39,268.02s1.14,6.21,9.91,12.8c0,0-5.55,2.33-9.91,.61,.05,1.56,.89,2.98,2.23,3.77-3.48,1.44-7.25,2-11,1.64,0,0,8.74-4.19,8.77-18.82Z" fill="#002346"></path>
    <path d="M211.81,287.44c-.75,0-1.5-.04-2.24-.11l-1.77-.17,1.6-.78c.08-.04,8.46-4.26,8.49-18.37l.99-.09c.01,.06,1.24,6.12,9.72,12.49l.7,.52-.8,.34c-.22,.09-5.18,2.14-9.51,.88,.24,1.09,.91,2.03,1.89,2.61l.87,.51-.93,.38c-2.85,1.18-5.92,1.78-9,1.78Zm-.62-1.01c2.83,.08,5.71-.39,8.39-1.37-1.04-.91-1.65-2.21-1.7-3.62l-.02-.76,.71,.28c3.15,1.24,7.02,.24,8.7-.31-5.01-3.94-7.38-7.67-8.48-10.03-.73,9.58-5.27,14.1-7.59,15.81Z" fill="#002346"></path>
  </g>
  <g>
    <rect x="180.06" y="239.65" width="37.6" height="50.56" rx="18.8" ry="18.8" transform="translate(-94.11 110.32) rotate(-25.29)" fill="#f2b3c1"></rect>
    <path d="M201.65,290.09c-7.24,0-14.19-4.09-17.48-11.05l-5.54-11.72c-2.2-4.66-2.46-9.9-.72-14.75,1.74-4.85,5.26-8.74,9.92-10.94,4.66-2.2,9.9-2.46,14.75-.72,4.85,1.74,8.74,5.26,10.94,9.92l5.54,11.72c2.2,4.66,2.46,9.9,.72,14.75-1.74,4.85-5.26,8.74-9.92,10.94-2.66,1.25-5.46,1.85-8.21,1.85Zm-5.58-49.33c-2.67,0-5.32,.59-7.8,1.76-4.42,2.09-7.76,5.77-9.41,10.37-1.65,4.6-1.41,9.57,.68,13.99l5.54,11.72c4.31,9.12,15.24,13.04,24.36,8.73h0c4.42-2.09,7.76-5.77,9.41-10.37,1.65-4.6,1.41-9.57-.68-13.99l-5.54-11.72c-2.09-4.42-5.77-7.76-10.37-9.41-2.02-.72-4.1-1.08-6.18-1.08Z" fill="#002346"></path>
  </g>
  <g>
    <path d="M183.5,297.5s8-5,3.02-15.18c0-.05-12-19-6.17-31.72,0,0,17.24,14.85,21.62,1.68,0,0,10.92,5.83,18.31,.05,3.47-2.72,4.14-7.65,1.29-11.02-1.41-1.67-3.64-3.48-7.15-5.22,.66-.93,1.77-1.43,2.9-1.32,0,0-3.61-11-18.81-12.09,0,0-18.49-2.17-25.07,11,0,0-16.41-1.82-15.99,18.62,.06,3.17,.64,6.31,1.52,9.36,1.54,5.32,3.87,16.76-3.48,19.81-1.92,.8-3.69,1.95-4.97,3.59-3.35,4.31-7.49,12.77,1.3,22.05,0,0,5.71-9.09,18.69-9.86,0,0,7.98-2.77,12.98,.23Z" fill="#002346"></path>
    <path d="M151.92,307.93l-.44-.47c-9.08-9.59-4.73-18.34-1.33-22.71,1.22-1.56,2.96-2.83,5.17-3.75,7.05-2.93,4.58-14.41,3.19-19.21-.98-3.37-1.48-6.47-1.54-9.49-.14-6.94,1.61-12.12,5.21-15.41,4.22-3.85,9.58-3.82,10.99-3.75,6.79-13,25.24-10.99,25.42-10.97,15.33,1.1,19.19,12.32,19.23,12.43l.24,.73-.76-.08c-.76-.08-1.5,.18-2.05,.67,2.91,1.52,5.17,3.21,6.73,5.05,1.42,1.68,2.08,3.8,1.86,5.97-.23,2.24-1.41,4.34-3.23,5.76-6.73,5.26-16.04,1.36-18.34,.26-1.02,2.68-2.68,4.35-4.94,4.97-6.07,1.67-14.57-4.76-16.76-6.54-4.61,11.31,4.45,27.38,6.34,30.53,.04,.06,.07,.11,.09,.16h0c5.12,10.46-3.12,15.77-3.21,15.82l-.26,.16-.26-.16c-4.74-2.84-12.48-.22-12.56-.19l-.13,.03c-12.58,.74-18.24,9.53-18.29,9.62l-.34,.55Zm20.57-73.79c-1.87,0-6.22,.37-9.65,3.5-3.37,3.08-5.01,8.01-4.87,14.64,.06,2.92,.55,5.94,1.5,9.23,1.46,5.06,4.03,17.17-3.77,20.41-2.05,.85-3.66,2.01-4.77,3.44-3.15,4.04-7.16,12.09,.85,20.95,1.48-1.98,7.43-8.87,18.64-9.56,.83-.28,8.1-2.58,13.05,.14,1.29-.93,6.88-5.61,2.6-14.36l-.05-.09c-1.97-3.29-11.53-20.28-6.13-32.06l.28-.6,.5,.43c.1,.08,10,8.52,16.37,6.77,2.07-.57,3.57-2.21,4.45-4.87l.19-.56,.52,.28c.11,.06,10.72,5.61,17.77,.1,1.61-1.26,2.64-3.11,2.85-5.08,.2-1.9-.38-3.76-1.63-5.23-1.57-1.86-3.92-3.57-6.99-5.1l-.52-.26,.34-.48c.61-.85,1.55-1.4,2.57-1.52-1.06-2.33-5.57-10.2-18.1-11.1-.2-.03-18.24-1.97-24.59,10.72l-.16,.31-.35-.04s-.35-.04-.91-.04Z" fill="#002346"></path>
  </g>
  <g>
    <circle cx="178.94" cy="268.75" r="6.58" fill="#f2b3c1"></circle>
    <path d="M178.94,275.83c-3.9,0-7.08-3.18-7.08-7.08s3.18-7.08,7.08-7.08,7.08,3.18,7.08,7.08-3.18,7.08-7.08,7.08Zm0-13.16c-3.35,0-6.08,2.73-6.08,6.08s2.73,6.08,6.08,6.08,6.08-2.73,6.08-6.08-2.73-6.08-6.08-6.08Z" fill="#002346"></path>
  </g>
</svg>
