<?xml version="1.0" encoding="UTF-8"?><svg id="Layer_2" xmlns="http://www.w3.org/2000/svg" xmlns:xlink="http://www.w3.org/1999/xlink" viewBox="0 0 255 96.92"><defs><style>.cls-1{fill:#fff;}.cls-2{clip-path:url(#clippath-2);}.cls-3{clip-path:url(#clippath);}.cls-4{fill:none;}.cls-5{fill:#bc2227;}.cls-6{fill:#070909;}</style><clipPath id="clippath"><rect class="cls-4" width="255" height="96.92"/></clipPath><clipPath id="clippath-2"><rect class="cls-4" width="255" height="96.92"/></clipPath></defs><g id="Layer_1-2"><g><g><path class="cls-6" d="M5.4,89.64v-11.55h3.73c.72,0,1.34,.07,1.85,.21,.51,.14,.94,.34,1.27,.6,.33,.26,.58,.58,.74,.95,.16,.38,.24,.8,.24,1.26,0,.28-.04,.55-.13,.81-.09,.26-.22,.5-.4,.72-.18,.22-.4,.42-.67,.6-.27,.18-.58,.33-.94,.44,.83,.17,1.46,.47,1.89,.91,.43,.44,.64,1.02,.64,1.73,0,.49-.09,.94-.27,1.35-.18,.41-.45,.75-.8,1.04-.35,.29-.78,.52-1.28,.68-.51,.16-1.09,.24-1.73,.24H5.4Zm1.66-6.41h2c.43,0,.8-.05,1.12-.14,.32-.09,.58-.22,.78-.39,.21-.17,.36-.37,.46-.6,.1-.24,.15-.5,.15-.79,0-.67-.2-1.15-.6-1.46-.4-.31-1.02-.46-1.85-.46h-2.08v3.84Zm0,1.17v3.91h2.45c.44,0,.82-.05,1.13-.15,.31-.1,.57-.24,.76-.42s.35-.39,.44-.64c.09-.25,.14-.52,.14-.81,0-.58-.2-1.04-.61-1.38-.41-.34-1.03-.51-1.86-.51h-2.45Z"/><path class="cls-6" d="M16.47,81.47v5.21c0,.59,.14,1.05,.41,1.38,.27,.33,.69,.49,1.25,.49,.41,0,.79-.09,1.15-.28,.36-.19,.69-.46,.99-.79v-6h1.53v8.17h-.92c-.22,0-.35-.1-.4-.31l-.12-.85c-.35,.38-.75,.69-1.18,.93-.43,.24-.93,.35-1.5,.35-.45,0-.85-.08-1.19-.23-.34-.15-.63-.36-.85-.63-.23-.27-.4-.6-.52-.97-.12-.38-.18-.8-.18-1.26v-5.21h1.53Z"/><path class="cls-6" d="M28.48,82.85c-.08,.13-.18,.19-.31,.19-.09,0-.18-.03-.29-.09-.1-.06-.23-.12-.37-.2-.15-.07-.32-.14-.52-.2-.2-.06-.44-.09-.71-.09-.23,0-.44,.03-.63,.09-.19,.06-.35,.14-.48,.24-.13,.1-.23,.22-.31,.36-.07,.14-.11,.29-.11,.45,0,.21,.06,.38,.18,.51,.12,.14,.28,.25,.48,.35,.2,.1,.42,.19,.67,.26,.25,.08,.51,.16,.77,.25,.26,.09,.52,.18,.77,.29,.25,.11,.48,.25,.67,.41,.2,.16,.35,.36,.48,.59,.12,.23,.18,.51,.18,.84,0,.38-.07,.73-.21,1.05-.14,.32-.34,.6-.6,.84-.27,.24-.59,.42-.98,.55-.39,.13-.83,.2-1.34,.2-.57,0-1.09-.1-1.56-.28-.47-.19-.87-.43-1.19-.72l.35-.58c.04-.08,.1-.13,.16-.17,.06-.04,.15-.06,.24-.06,.1,0,.21,.04,.31,.11,.11,.08,.24,.16,.39,.25,.15,.09,.34,.17,.55,.25,.22,.08,.49,.11,.81,.11,.27,0,.51-.03,.71-.1,.2-.07,.37-.16,.5-.28,.13-.12,.23-.25,.3-.41,.06-.16,.1-.32,.1-.49,0-.22-.06-.4-.18-.55-.12-.15-.28-.27-.48-.37-.2-.1-.42-.19-.67-.26-.25-.07-.51-.16-.78-.24-.27-.09-.53-.18-.78-.29-.25-.11-.48-.25-.67-.42-.2-.17-.35-.38-.48-.63-.12-.24-.18-.54-.18-.9,0-.32,.06-.62,.19-.91,.13-.29,.32-.54,.57-.76,.25-.22,.56-.39,.92-.52,.37-.13,.78-.19,1.25-.19,.54,0,1.02,.09,1.46,.25,.44,.17,.81,.4,1.12,.7l-.34,.55Z"/><path class="cls-6" d="M32.25,78.93c0,.15-.03,.28-.08,.41-.06,.13-.13,.24-.23,.33-.1,.1-.22,.17-.35,.23-.13,.06-.27,.08-.41,.08s-.27-.03-.4-.08c-.13-.06-.24-.13-.33-.23-.1-.1-.17-.21-.23-.33-.06-.13-.08-.26-.08-.41s.03-.28,.08-.41c.06-.13,.13-.25,.23-.34,.1-.1,.21-.17,.33-.23,.13-.06,.26-.08,.4-.08s.28,.03,.41,.08c.13,.06,.25,.13,.35,.23,.1,.1,.18,.21,.23,.34,.06,.13,.08,.27,.08,.41m-.3,10.71h-1.53v-8.17h1.53v8.17Z"/><path class="cls-6" d="M33.92,89.64v-8.17h.92c.22,0,.35,.1,.4,.31l.11,.85c.35-.38,.75-.69,1.18-.93,.43-.24,.94-.35,1.5-.35,.45,0,.84,.08,1.18,.23,.34,.15,.63,.36,.86,.63,.23,.27,.41,.6,.52,.97,.12,.38,.18,.8,.18,1.26v5.21h-1.53v-5.21c0-.59-.14-1.05-.41-1.38-.27-.33-.69-.5-1.25-.5-.41,0-.8,.1-1.15,.29-.35,.19-.69,.46-.99,.8v6h-1.53Z"/><path class="cls-6" d="M45.97,81.34c.49,0,.95,.08,1.37,.25,.42,.16,.78,.4,1.09,.71,.31,.31,.55,.69,.72,1.15,.17,.45,.26,.97,.26,1.56,0,.24-.03,.39-.08,.48-.05,.08-.15,.12-.29,.12h-5.39c.02,.5,.09,.93,.21,1.3,.13,.37,.3,.68,.51,.92,.22,.24,.48,.43,.78,.55,.31,.12,.65,.18,1.02,.18,.35,0,.66-.04,.91-.12,.25-.08,.47-.17,.66-.27,.19-.1,.34-.18,.47-.27,.13-.08,.24-.12,.34-.12,.13,0,.22,.05,.28,.15l.44,.56c-.19,.23-.41,.42-.65,.57-.25,.16-.51,.29-.8,.4-.28,.1-.58,.18-.88,.23-.3,.05-.6,.07-.9,.07-.56,0-1.08-.1-1.57-.29-.48-.19-.89-.47-1.24-.84-.35-.37-.62-.82-.82-1.37-.2-.54-.29-1.17-.29-1.88,0-.57,.09-1.1,.27-1.59,.18-.49,.43-.92,.76-1.28,.33-.36,.73-.65,1.21-.86,.47-.21,1.01-.31,1.61-.31m.02,1.12c-.67,0-1.2,.19-1.58,.58-.38,.39-.62,.93-.72,1.61h4.34c0-.32-.05-.62-.14-.89-.09-.27-.22-.5-.4-.69-.17-.19-.39-.34-.64-.45-.25-.11-.54-.17-.86-.17"/><path class="cls-6" d="M55.59,82.85c-.08,.13-.18,.19-.31,.19-.09,0-.18-.03-.29-.09-.1-.06-.23-.12-.37-.2-.15-.07-.32-.14-.52-.2-.2-.06-.44-.09-.71-.09-.23,0-.44,.03-.63,.09-.19,.06-.35,.14-.48,.24-.13,.1-.23,.22-.31,.36-.07,.14-.11,.29-.11,.45,0,.21,.06,.38,.18,.51,.12,.14,.28,.25,.48,.35,.2,.1,.42,.19,.67,.26,.25,.08,.51,.16,.77,.25,.26,.09,.52,.18,.77,.29,.25,.11,.48,.25,.67,.41,.2,.16,.35,.36,.47,.59,.12,.23,.18,.51,.18,.84,0,.38-.07,.73-.21,1.05-.14,.32-.34,.6-.6,.84-.27,.24-.59,.42-.98,.55-.39,.13-.83,.2-1.34,.2-.57,0-1.09-.1-1.56-.28-.47-.19-.87-.43-1.19-.72l.35-.58c.04-.08,.1-.13,.16-.17,.06-.04,.14-.06,.24-.06,.1,0,.21,.04,.31,.11,.11,.08,.24,.16,.39,.25,.15,.09,.34,.17,.55,.25,.22,.08,.49,.11,.81,.11,.27,0,.51-.03,.71-.1,.2-.07,.37-.16,.5-.28,.13-.12,.23-.25,.3-.41,.06-.16,.1-.32,.1-.49,0-.22-.06-.4-.18-.55-.12-.15-.28-.27-.48-.37-.2-.1-.42-.19-.67-.26-.25-.07-.51-.16-.78-.24-.26-.09-.53-.18-.78-.29-.25-.11-.48-.25-.67-.42-.2-.17-.35-.38-.47-.63-.12-.24-.18-.54-.18-.9,0-.32,.06-.62,.19-.91,.13-.29,.32-.54,.57-.76,.25-.22,.56-.39,.92-.52,.36-.13,.78-.19,1.25-.19,.54,0,1.02,.09,1.46,.25,.44,.17,.81,.4,1.12,.7l-.34,.55Z"/><path class="cls-6" d="M62.25,82.85c-.08,.13-.18,.19-.31,.19-.09,0-.18-.03-.29-.09-.1-.06-.23-.12-.37-.2-.15-.07-.32-.14-.52-.2-.2-.06-.44-.09-.71-.09-.23,0-.44,.03-.63,.09-.19,.06-.35,.14-.48,.24-.13,.1-.23,.22-.31,.36-.07,.14-.11,.29-.11,.45,0,.21,.06,.38,.18,.51,.12,.14,.28,.25,.48,.35s.42,.19,.67,.26c.25,.08,.51,.16,.77,.25,.26,.09,.52,.18,.77,.29,.25,.11,.48,.25,.67,.41,.19,.16,.35,.36,.47,.59,.12,.23,.18,.51,.18,.84,0,.38-.07,.73-.21,1.05-.14,.32-.34,.6-.6,.84-.27,.24-.59,.42-.98,.55-.39,.13-.83,.2-1.34,.2-.57,0-1.09-.1-1.56-.28-.47-.19-.87-.43-1.19-.72l.36-.58c.04-.08,.1-.13,.16-.17,.06-.04,.14-.06,.24-.06,.1,0,.21,.04,.31,.11,.11,.08,.24,.16,.39,.25,.15,.09,.34,.17,.55,.25,.22,.08,.49,.11,.81,.11,.27,0,.51-.03,.71-.1,.2-.07,.37-.16,.5-.28,.13-.12,.23-.25,.3-.41,.06-.16,.1-.32,.1-.49,0-.22-.06-.4-.18-.55-.12-.15-.28-.27-.48-.37-.2-.1-.42-.19-.67-.26-.25-.07-.51-.16-.78-.24-.27-.09-.53-.18-.78-.29-.25-.11-.48-.25-.67-.42s-.35-.38-.47-.63c-.12-.24-.18-.54-.18-.9,0-.32,.06-.62,.19-.91,.13-.29,.32-.54,.57-.76,.25-.22,.56-.39,.92-.52,.36-.13,.78-.19,1.25-.19,.54,0,1.02,.09,1.46,.25,.44,.17,.81,.4,1.12,.7l-.34,.55Z"/><path class="cls-6" d="M73.1,89.64c-.15,0-.27-.02-.35-.07-.08-.05-.14-.14-.19-.28l-.17-.73c-.21,.19-.42,.37-.62,.52-.2,.15-.42,.28-.64,.38-.22,.1-.46,.18-.71,.23-.25,.05-.53,.08-.84,.08s-.62-.05-.9-.13c-.28-.09-.52-.22-.73-.41-.21-.18-.37-.41-.49-.68-.12-.27-.18-.59-.18-.96,0-.32,.09-.63,.26-.93,.17-.29,.46-.56,.85-.79,.39-.23,.91-.43,1.54-.57,.64-.15,1.42-.24,2.35-.26v-.61c0-.62-.13-1.08-.4-1.4-.27-.31-.66-.47-1.17-.47-.35,0-.64,.04-.87,.13-.23,.09-.43,.19-.6,.29-.17,.1-.32,.2-.45,.28-.13,.09-.26,.13-.39,.13-.11,0-.2-.03-.27-.09-.07-.06-.14-.12-.19-.2l-.27-.5c.46-.43,.95-.75,1.48-.97,.53-.21,1.11-.32,1.75-.32,.46,0,.87,.08,1.23,.23,.36,.15,.66,.36,.91,.63,.25,.27,.43,.6,.56,.98,.13,.38,.19,.8,.19,1.26v5.22h-.68Zm-3.07-.94c.24,0,.47-.02,.67-.07,.21-.05,.4-.12,.58-.21,.18-.09,.35-.2,.51-.33,.16-.13,.32-.28,.48-.45v-1.64c-.64,.02-1.19,.07-1.64,.15-.45,.08-.82,.19-1.1,.31-.28,.13-.49,.28-.62,.46-.13,.18-.19,.38-.19,.59s.03,.39,.1,.54c.07,.15,.16,.27,.28,.37,.12,.09,.26,.16,.42,.21,.16,.04,.33,.07,.51,.07"/><path class="cls-6" d="M75.59,89.64v-8.17h.92c.21,0,.35,.1,.4,.31l.11,.85c.35-.38,.75-.69,1.18-.93,.44-.24,.94-.35,1.51-.35,.45,0,.84,.08,1.18,.23,.34,.15,.63,.36,.86,.63,.23,.27,.41,.6,.52,.97,.12,.38,.18,.8,.18,1.26v5.21h-1.53v-5.21c0-.59-.14-1.05-.41-1.38-.27-.33-.69-.5-1.25-.5-.41,0-.8,.1-1.15,.29-.35,.19-.68,.46-.99,.8v6h-1.53Z"/><path class="cls-6" d="M90.17,89.64c-.21,0-.35-.1-.4-.31l-.14-.96c-.17,.21-.36,.4-.56,.57-.2,.17-.41,.31-.64,.44-.22,.12-.46,.21-.72,.28-.25,.06-.52,.1-.81,.1-.47,0-.89-.09-1.27-.27-.38-.18-.7-.45-.97-.8-.27-.35-.48-.79-.62-1.31-.15-.52-.22-1.12-.22-1.79,0-.61,.08-1.17,.24-1.69,.16-.52,.39-.97,.7-1.35,.31-.38,.68-.68,1.11-.9,.43-.22,.93-.33,1.47-.33,.49,0,.92,.08,1.27,.24,.35,.16,.66,.39,.94,.69v-4.49h1.53v11.87h-.92Zm-2.76-1.12c.46,0,.86-.1,1.2-.31,.34-.21,.66-.5,.95-.88v-3.9c-.26-.34-.54-.58-.85-.72-.31-.14-.64-.2-1.01-.2-.73,0-1.3,.26-1.7,.79-.4,.53-.6,1.29-.6,2.29,0,.52,.05,.97,.14,1.34,.09,.37,.22,.67,.39,.91,.17,.24,.38,.41,.63,.52,.25,.11,.53,.17,.85,.17"/><polygon class="cls-6" points="104.44 78.09 104.44 79.48 100.75 79.48 100.75 89.64 99.09 89.64 99.09 79.48 95.39 79.48 95.39 78.09 104.44 78.09"/><path class="cls-6" d="M106.88,81.34c.49,0,.95,.08,1.37,.25,.42,.16,.78,.4,1.09,.71,.31,.31,.55,.69,.72,1.15,.17,.45,.26,.97,.26,1.56,0,.24-.02,.39-.08,.48-.05,.08-.15,.12-.29,.12h-5.39c.02,.5,.09,.93,.21,1.3,.13,.37,.3,.68,.51,.92,.22,.24,.48,.43,.78,.55,.31,.12,.65,.18,1.02,.18,.35,0,.66-.04,.91-.12,.25-.08,.47-.17,.66-.27,.18-.1,.34-.18,.47-.27,.13-.08,.24-.12,.34-.12,.13,0,.22,.05,.28,.15l.44,.56c-.19,.23-.41,.42-.65,.57-.25,.16-.51,.29-.8,.4-.28,.1-.58,.18-.88,.23-.3,.05-.6,.07-.9,.07-.56,0-1.09-.1-1.57-.29-.48-.19-.89-.47-1.24-.84-.35-.37-.62-.82-.82-1.37-.2-.54-.29-1.17-.29-1.88,0-.57,.09-1.1,.27-1.59,.18-.49,.43-.92,.76-1.28,.33-.36,.73-.65,1.21-.86,.47-.21,1.01-.31,1.6-.31m.02,1.12c-.67,0-1.2,.19-1.58,.58-.38,.39-.62,.93-.72,1.61h4.34c0-.32-.05-.62-.14-.89-.09-.27-.22-.5-.4-.69-.18-.19-.39-.34-.64-.45-.25-.11-.54-.17-.86-.17"/><path class="cls-6" d="M117.41,82.97c-.04,.06-.09,.1-.13,.14-.05,.03-.11,.05-.19,.05-.09,0-.18-.03-.27-.1-.1-.07-.21-.14-.35-.22-.14-.08-.31-.15-.51-.22-.2-.07-.45-.1-.75-.1-.39,0-.74,.07-1.04,.21-.3,.14-.55,.34-.75,.6-.2,.26-.35,.58-.46,.95-.1,.37-.15,.79-.15,1.25s.05,.91,.17,1.29c.11,.38,.27,.69,.47,.95,.2,.26,.44,.45,.73,.59,.29,.13,.61,.2,.96,.2s.62-.04,.85-.12c.22-.08,.4-.17,.55-.27,.14-.1,.27-.19,.37-.27,.1-.08,.2-.12,.3-.12,.13,0,.22,.05,.29,.15l.44,.56c-.19,.23-.4,.42-.63,.58-.23,.16-.48,.29-.74,.39-.26,.1-.54,.18-.82,.23-.28,.05-.57,.07-.87,.07-.51,0-.98-.09-1.43-.28-.44-.19-.82-.46-1.15-.82-.32-.36-.58-.8-.76-1.32-.18-.52-.28-1.12-.28-1.78,0-.61,.08-1.17,.25-1.68,.17-.51,.42-.96,.75-1.33,.33-.38,.73-.67,1.21-.88,.48-.21,1.03-.31,1.65-.31,.58,0,1.1,.1,1.54,.28,.44,.19,.83,.45,1.17,.79l-.4,.56Z"/><path class="cls-6" d="M119.07,89.64v-11.87h1.53v4.75c.34-.35,.72-.64,1.14-.85,.42-.21,.9-.32,1.45-.32,.45,0,.84,.08,1.18,.23,.34,.15,.63,.36,.86,.63,.23,.27,.41,.6,.52,.97,.12,.38,.18,.8,.18,1.26v5.21h-1.53v-5.21c0-.59-.14-1.05-.41-1.38-.27-.33-.69-.5-1.25-.5-.41,0-.8,.1-1.15,.29-.35,.19-.68,.46-.99,.8v6h-1.53Z"/><path class="cls-6" d="M127.75,89.64v-8.17h.92c.21,0,.35,.1,.4,.31l.11,.85c.35-.38,.75-.69,1.18-.93,.43-.24,.94-.35,1.5-.35,.45,0,.84,.08,1.18,.23,.34,.15,.63,.36,.86,.63,.23,.27,.41,.6,.52,.97,.12,.38,.18,.8,.18,1.26v5.21h-1.53v-5.21c0-.59-.14-1.05-.41-1.38-.27-.33-.69-.5-1.25-.5-.41,0-.8,.1-1.15,.29-.35,.19-.68,.46-.99,.8v6h-1.53Z"/><path class="cls-6" d="M139.89,81.34c.6,0,1.14,.1,1.63,.29,.48,.2,.89,.48,1.23,.84,.34,.36,.6,.81,.78,1.32,.18,.52,.27,1.1,.27,1.74s-.09,1.23-.27,1.75c-.18,.52-.44,.96-.78,1.33-.34,.36-.75,.64-1.23,.84-.48,.2-1.03,.29-1.63,.29s-1.14-.1-1.63-.29c-.49-.2-.9-.48-1.24-.84-.34-.37-.6-.81-.78-1.33-.18-.52-.27-1.1-.27-1.75s.09-1.22,.27-1.74c.18-.52,.44-.96,.78-1.32,.34-.37,.75-.65,1.24-.84,.49-.2,1.03-.29,1.63-.29m0,7.22c.78,0,1.37-.26,1.76-.79,.39-.53,.58-1.27,.58-2.22s-.19-1.69-.58-2.22c-.39-.53-.97-.8-1.76-.8s-1.39,.26-1.77,.8c-.39,.53-.58,1.27-.58,2.22s.19,1.7,.58,2.22c.39,.52,.98,.79,1.77,.79"/><rect class="cls-6" x="145.28" y="77.76" width="1.53" height="11.87"/><path class="cls-6" d="M152.22,81.34c.6,0,1.14,.1,1.63,.29,.48,.2,.89,.48,1.23,.84,.34,.36,.6,.81,.78,1.32,.18,.52,.27,1.1,.27,1.74s-.09,1.23-.27,1.75c-.18,.52-.44,.96-.78,1.33-.34,.36-.75,.64-1.23,.84-.48,.2-1.02,.29-1.63,.29s-1.14-.1-1.63-.29c-.49-.2-.9-.48-1.24-.84-.34-.37-.6-.81-.78-1.33-.18-.52-.27-1.1-.27-1.75s.09-1.22,.27-1.74c.18-.52,.44-.96,.78-1.32,.34-.37,.75-.65,1.24-.84,.49-.2,1.03-.29,1.63-.29m0,7.22c.78,0,1.37-.26,1.75-.79,.39-.53,.58-1.27,.58-2.22s-.19-1.69-.58-2.22c-.39-.53-.97-.8-1.75-.8s-1.39,.26-1.77,.8c-.39,.53-.58,1.27-.58,2.22s.19,1.7,.58,2.22c.39,.52,.98,.79,1.77,.79"/><path class="cls-6" d="M160.44,81.33c.35,0,.68,.04,.99,.12,.3,.08,.58,.19,.84,.33h2.25v.56c0,.19-.12,.31-.35,.36l-.89,.13c.17,.34,.25,.72,.25,1.13s-.08,.76-.23,1.09c-.15,.32-.37,.6-.64,.83-.27,.23-.6,.41-.98,.53-.38,.12-.79,.19-1.23,.19-.38,0-.72-.04-1.05-.12-.34,.21-.51,.43-.51,.68,0,.19,.08,.33,.24,.42,.16,.09,.37,.16,.62,.2,.26,.04,.55,.07,.88,.08,.33,.01,.66,.03,1.01,.05,.34,.02,.68,.06,1.01,.12,.33,.06,.62,.16,.88,.29,.26,.14,.46,.32,.62,.56,.16,.24,.24,.55,.24,.93,0,.35-.09,.69-.26,1.03-.17,.33-.43,.62-.76,.88-.33,.25-.73,.46-1.21,.62-.48,.16-1.02,.23-1.62,.23s-1.13-.06-1.57-.18c-.45-.12-.82-.28-1.12-.48-.3-.2-.52-.43-.67-.69-.15-.26-.22-.53-.22-.82,0-.4,.12-.74,.37-1.02,.25-.28,.59-.49,1.03-.65-.24-.11-.43-.25-.57-.44-.14-.19-.21-.43-.21-.74,0-.12,.02-.24,.06-.37,.04-.13,.11-.25,.2-.38,.09-.13,.2-.25,.33-.36,.13-.11,.28-.21,.45-.3-.4-.22-.72-.52-.95-.9-.23-.37-.35-.81-.35-1.31,0-.4,.08-.76,.23-1.09,.16-.32,.37-.6,.65-.83,.28-.23,.6-.41,.99-.53,.38-.12,.8-.19,1.26-.19m2.53,8.73c0-.19-.05-.35-.16-.47-.11-.12-.26-.21-.45-.28-.19-.07-.41-.12-.65-.15-.25-.03-.51-.05-.78-.06-.27-.02-.55-.03-.84-.05-.29-.02-.56-.04-.82-.08-.29,.14-.53,.31-.71,.52-.18,.2-.27,.44-.27,.72,0,.18,.05,.34,.14,.49,.09,.15,.23,.28,.41,.39,.18,.11,.42,.2,.71,.26,.29,.06,.63,.1,1.02,.1s.73-.03,1.03-.1c.3-.07,.55-.17,.76-.29,.2-.12,.36-.27,.47-.44,.11-.17,.16-.36,.16-.56m-2.53-4.47c.28,0,.53-.04,.75-.12,.21-.08,.39-.19,.54-.33,.15-.14,.25-.31,.33-.5,.07-.19,.11-.41,.11-.64,0-.48-.15-.87-.44-1.15-.29-.29-.72-.43-1.28-.43s-.99,.14-1.28,.43c-.29,.29-.44,.67-.44,1.15,0,.23,.04,.44,.11,.64,.08,.19,.18,.36,.33,.5,.15,.14,.32,.25,.54,.33,.22,.08,.46,.12,.74,.12"/><path class="cls-6" d="M168.21,92.02c-.05,.12-.11,.21-.18,.27-.08,.06-.19,.09-.35,.09h-1.13l1.5-3.25-3.36-7.67h1.33c.13,0,.23,.03,.31,.09,.07,.06,.13,.13,.15,.21l2.12,4.99c.09,.25,.16,.49,.22,.73,.04-.12,.08-.25,.12-.37,.04-.13,.09-.25,.14-.37l2.04-4.98c.03-.09,.09-.16,.17-.22,.08-.06,.17-.09,.27-.09h1.22l-4.55,10.55Z"/><path class="cls-6" d="M185.43,87.19c.09,0,.17,.03,.24,.1l.66,.72c-.47,.55-1.05,.98-1.73,1.29-.68,.31-1.49,.46-2.44,.46-.84,0-1.59-.15-2.27-.43-.68-.29-1.26-.69-1.74-1.22-.48-.52-.85-1.14-1.11-1.87-.26-.72-.39-1.52-.39-2.39s.14-1.67,.41-2.39c.27-.72,.66-1.35,1.16-1.86,.5-.52,1.1-.92,1.79-1.21,.69-.29,1.46-.44,2.3-.44s1.55,.14,2.19,.4c.64,.27,1.19,.63,1.66,1.07l-.55,.77c-.04,.05-.08,.1-.13,.13-.05,.03-.12,.05-.21,.05-.1,0-.22-.05-.36-.15-.14-.1-.32-.22-.54-.34-.22-.13-.5-.24-.83-.34-.33-.1-.74-.15-1.23-.15-.58,0-1.11,.1-1.6,.31-.49,.2-.9,.5-1.25,.88-.35,.38-.62,.85-.81,1.4-.19,.55-.29,1.18-.29,1.88s.1,1.34,.3,1.89c.2,.56,.48,1.02,.83,1.41,.35,.38,.77,.67,1.24,.87,.48,.2,.99,.3,1.54,.3,.34,0,.64-.02,.91-.06,.27-.04,.52-.1,.74-.18,.23-.08,.44-.19,.64-.31,.2-.13,.4-.28,.6-.46,.04-.04,.09-.07,.13-.09,.05-.02,.1-.04,.15-.04"/><path class="cls-6" d="M190.74,81.34c.6,0,1.14,.1,1.62,.29,.48,.2,.89,.48,1.23,.84,.34,.36,.6,.81,.78,1.32,.18,.52,.27,1.1,.27,1.74s-.09,1.23-.27,1.75c-.18,.52-.44,.96-.78,1.33-.34,.36-.75,.64-1.23,.84-.48,.2-1.02,.29-1.62,.29s-1.14-.1-1.63-.29c-.49-.2-.9-.48-1.24-.84-.34-.37-.6-.81-.78-1.33-.18-.52-.27-1.1-.27-1.75s.09-1.22,.27-1.74c.18-.52,.44-.96,.78-1.32,.34-.37,.75-.65,1.24-.84,.49-.2,1.03-.29,1.63-.29m0,7.22c.78,0,1.37-.26,1.75-.79,.39-.53,.58-1.27,.58-2.22s-.19-1.69-.58-2.22c-.39-.53-.97-.8-1.75-.8s-1.39,.26-1.77,.8c-.39,.53-.58,1.27-.58,2.22s.19,1.7,.58,2.22c.39,.52,.98,.79,1.77,.79"/><path class="cls-6" d="M196.09,89.64v-8.17h.92c.21,0,.35,.1,.4,.31l.11,.85c.35-.38,.75-.69,1.18-.93,.43-.24,.93-.35,1.5-.35,.45,0,.84,.08,1.18,.23,.34,.15,.63,.36,.86,.63,.23,.27,.41,.6,.52,.97,.12,.38,.18,.8,.18,1.26v5.21h-1.53v-5.21c0-.59-.14-1.05-.41-1.38-.27-.33-.69-.5-1.25-.5-.41,0-.8,.1-1.15,.29-.35,.19-.68,.46-.99,.8v6h-1.53Z"/><path class="cls-6" d="M209.57,82.85c-.07,.13-.18,.19-.31,.19-.09,0-.18-.03-.29-.09-.1-.06-.23-.12-.37-.2-.15-.07-.32-.14-.52-.2-.2-.06-.44-.09-.71-.09-.23,0-.44,.03-.63,.09-.19,.06-.35,.14-.48,.24-.13,.1-.23,.22-.31,.36-.07,.14-.11,.29-.11,.45,0,.21,.06,.38,.18,.51,.12,.14,.28,.25,.48,.35,.2,.1,.42,.19,.67,.26,.25,.08,.51,.16,.77,.25,.26,.09,.52,.18,.77,.29,.25,.11,.48,.25,.67,.41,.2,.16,.35,.36,.47,.59,.12,.23,.18,.51,.18,.84,0,.38-.07,.73-.21,1.05-.14,.32-.34,.6-.6,.84-.27,.24-.59,.42-.98,.55-.39,.13-.83,.2-1.34,.2-.57,0-1.09-.1-1.56-.28-.47-.19-.87-.43-1.19-.72l.35-.58c.04-.08,.1-.13,.16-.17,.06-.04,.15-.06,.24-.06s.21,.04,.31,.11c.11,.08,.24,.16,.39,.25,.15,.09,.34,.17,.56,.25,.22,.08,.49,.11,.81,.11,.27,0,.51-.03,.71-.1,.2-.07,.37-.16,.5-.28,.13-.12,.23-.25,.3-.41,.06-.16,.1-.32,.1-.49,0-.22-.06-.4-.18-.55-.12-.15-.28-.27-.47-.37-.2-.1-.42-.19-.67-.26-.25-.07-.51-.16-.78-.24-.27-.09-.52-.18-.78-.29-.25-.11-.48-.25-.67-.42-.2-.17-.35-.38-.47-.63-.12-.24-.18-.54-.18-.9,0-.32,.07-.62,.19-.91,.13-.29,.32-.54,.57-.76,.25-.22,.56-.39,.92-.52,.36-.13,.78-.19,1.25-.19,.54,0,1.02,.09,1.46,.25,.44,.17,.81,.4,1.11,.7l-.34,.55Z"/><path class="cls-6" d="M212.88,81.47v5.21c0,.59,.14,1.05,.41,1.38,.27,.33,.69,.49,1.25,.49,.41,0,.79-.09,1.15-.28,.36-.19,.69-.46,1-.79v-6h1.53v8.17h-.92c-.21,0-.35-.1-.4-.31l-.12-.85c-.35,.38-.75,.69-1.18,.93-.43,.24-.93,.35-1.5,.35-.45,0-.85-.08-1.19-.23-.34-.15-.63-.36-.85-.63-.23-.27-.4-.6-.52-.97-.12-.38-.18-.8-.18-1.26v-5.21h1.53Z"/><rect class="cls-6" x="220.14" y="77.76" width="1.53" height="11.87"/><path class="cls-6" d="M231.31,81.6v8.03h-1.53v-6.92h-4.14v4.82c0,.33,.08,.57,.24,.74,.16,.16,.37,.24,.62,.24,.15,0,.27-.02,.38-.06,.11-.04,.2-.08,.27-.13,.07-.05,.14-.09,.2-.13,.06-.04,.11-.06,.15-.06,.05,0,.09,.01,.12,.03,.03,.02,.06,.06,.09,.11l.45,.73c-.26,.24-.56,.42-.91,.55-.35,.13-.71,.19-1.09,.19-.66,0-1.16-.18-1.51-.55-.35-.36-.53-.89-.53-1.58v-4.93h-.96c-.09,0-.17-.03-.23-.08-.06-.06-.09-.14-.09-.25v-.61l1.33-.18,.35-2.47c.02-.09,.06-.15,.12-.21,.06-.05,.14-.08,.23-.08h.77v2.76h5.67Zm.35-2.73c0,.14-.03,.28-.09,.41-.06,.13-.14,.24-.23,.33-.1,.09-.21,.17-.34,.23s-.27,.08-.41,.08-.28-.03-.41-.08c-.12-.06-.23-.13-.33-.23-.09-.09-.17-.2-.22-.33-.06-.13-.09-.27-.09-.41s.03-.28,.09-.41c.06-.13,.13-.24,.22-.34,.09-.1,.2-.17,.33-.23,.13-.06,.26-.08,.41-.08s.28,.03,.41,.08c.13,.06,.24,.13,.34,.23,.1,.1,.17,.21,.23,.34,.06,.13,.09,.27,.09,.41"/><path class="cls-6" d="M233.28,89.64v-8.17h.92c.21,0,.35,.1,.4,.31l.11,.85c.35-.38,.75-.69,1.18-.93,.43-.24,.94-.35,1.51-.35,.44,0,.84,.08,1.18,.23,.34,.15,.63,.36,.86,.63,.23,.27,.41,.6,.52,.97,.12,.38,.18,.8,.18,1.26v5.21h-1.53v-5.21c0-.59-.14-1.05-.41-1.38-.27-.33-.69-.5-1.25-.5-.41,0-.8,.1-1.15,.29-.35,.19-.69,.46-.99,.8v6h-1.53Z"/><path class="cls-6" d="M244.82,81.33c.35,0,.68,.04,.98,.12,.3,.08,.58,.19,.84,.33h2.26v.56c0,.19-.12,.31-.35,.36l-.89,.13c.17,.34,.25,.72,.25,1.13s-.08,.76-.23,1.09c-.15,.32-.37,.6-.64,.83-.28,.23-.6,.41-.98,.53-.38,.12-.79,.19-1.24,.19-.38,0-.73-.04-1.05-.12-.34,.21-.51,.43-.51,.68,0,.19,.08,.33,.24,.42,.16,.09,.37,.16,.63,.2,.26,.04,.55,.07,.88,.08,.33,.01,.66,.03,1.01,.05,.34,.02,.68,.06,1.01,.12,.33,.06,.62,.16,.88,.29,.26,.14,.46,.32,.62,.56,.16,.24,.24,.55,.24,.93,0,.35-.09,.69-.26,1.03-.17,.33-.43,.62-.76,.88-.33,.25-.73,.46-1.21,.62-.48,.16-1.02,.23-1.62,.23s-1.13-.06-1.57-.18c-.45-.12-.82-.28-1.12-.48-.3-.2-.52-.43-.67-.69-.15-.26-.22-.53-.22-.82,0-.4,.12-.74,.37-1.02,.25-.28,.59-.49,1.03-.65-.24-.11-.43-.25-.57-.44-.14-.19-.21-.43-.21-.74,0-.12,.02-.24,.06-.37,.04-.13,.11-.25,.2-.38,.09-.13,.2-.25,.33-.36,.13-.11,.28-.21,.45-.3-.4-.22-.72-.52-.95-.9-.23-.37-.35-.81-.35-1.31,0-.4,.08-.76,.23-1.09,.16-.32,.37-.6,.65-.83,.28-.23,.61-.41,.99-.53,.38-.12,.8-.19,1.26-.19m2.53,8.73c0-.19-.06-.35-.17-.47-.11-.12-.26-.21-.45-.28-.19-.07-.41-.12-.65-.15-.25-.03-.51-.05-.78-.06-.27-.02-.55-.03-.84-.05-.29-.02-.56-.04-.82-.08-.29,.14-.53,.31-.71,.52-.18,.2-.27,.44-.27,.72,0,.18,.05,.34,.14,.49,.09,.15,.23,.28,.42,.39,.18,.11,.42,.2,.71,.26,.29,.06,.63,.1,1.02,.1s.73-.03,1.03-.1c.3-.07,.55-.17,.76-.29,.2-.12,.36-.27,.47-.44,.11-.17,.16-.36,.16-.56m-2.53-4.47c.28,0,.53-.04,.75-.12,.22-.08,.39-.19,.54-.33,.14-.14,.25-.31,.33-.5,.07-.19,.11-.41,.11-.64,0-.48-.15-.87-.44-1.15-.29-.29-.72-.43-1.28-.43s-.99,.14-1.29,.43c-.29,.29-.44,.67-.44,1.15,0,.23,.04,.44,.11,.64,.08,.19,.18,.36,.33,.5,.14,.14,.32,.25,.54,.33,.21,.08,.46,.12,.74,.12"/></g><g class="cls-3"><path class="cls-5" d="M107.61,37.91V11.99h9.53c1.79,0,3.31,.17,4.57,.5,1.26,.33,2.28,.8,3.08,1.41,.79,.6,1.37,1.34,1.73,2.21,.36,.87,.54,1.83,.54,2.9,0,.58-.08,1.14-.25,1.68-.17,.54-.43,1.05-.78,1.52-.36,.47-.81,.9-1.37,1.29-.56,.38-1.23,.72-2.01,1,1.71,.42,2.97,1.09,3.79,2.02,.82,.93,1.23,2.13,1.23,3.58,0,1.1-.21,2.13-.64,3.08-.43,.95-1.05,1.78-1.88,2.48-.82,.71-1.84,1.26-3.05,1.65-1.21,.4-2.59,.6-4.14,.6h-10.35Zm6.01-15.01h3.13c.66,0,1.26-.05,1.8-.14,.53-.09,.99-.26,1.36-.5,.37-.24,.66-.56,.85-.98,.2-.41,.29-.94,.29-1.57s-.08-1.13-.23-1.54c-.15-.41-.39-.74-.71-.99-.32-.25-.73-.43-1.22-.53-.49-.11-1.08-.16-1.75-.16h-3.52v6.4Zm0,4.02v6.46h4.23c.79,0,1.44-.1,1.95-.3,.5-.2,.9-.46,1.18-.78,.28-.32,.48-.68,.59-1.08s.16-.81,.16-1.23c0-.47-.06-.9-.19-1.28-.12-.38-.34-.7-.64-.96-.3-.26-.7-.46-1.2-.6s-1.13-.21-1.89-.21h-4.2Z"/><path class="cls-5" d="M130.48,37.9V19.46h3.27c.27,0,.5,.02,.68,.07,.18,.05,.34,.12,.46,.22,.12,.1,.22,.23,.29,.4,.06,.17,.12,.37,.17,.6l.27,1.57c.58-1,1.24-1.78,1.98-2.36,.74-.57,1.59-.86,2.55-.86,.83,0,1.51,.2,2.03,.59l-.36,4.06c-.06,.26-.16,.44-.29,.53-.14,.09-.32,.14-.56,.14-.1,0-.22,0-.37-.02-.15-.01-.31-.03-.48-.04-.17-.02-.34-.04-.51-.05-.17-.02-.33-.03-.47-.03-.81,0-1.45,.22-1.93,.65-.48,.43-.89,1.03-1.22,1.79v11.19h-5.51Z"/><path class="cls-5" d="M150.27,14.41c0,.44-.09,.85-.27,1.24-.18,.39-.42,.72-.73,1.01-.31,.29-.67,.52-1.08,.69-.41,.17-.85,.26-1.31,.26s-.87-.09-1.26-.26c-.39-.17-.74-.4-1.04-.69-.3-.29-.54-.63-.71-1.01-.17-.39-.26-.8-.26-1.24s.09-.87,.26-1.26c.17-.39,.41-.74,.71-1.03,.3-.3,.65-.53,1.04-.69,.39-.17,.81-.25,1.26-.25s.9,.08,1.31,.25c.41,.17,.77,.4,1.08,.69,.31,.3,.55,.64,.73,1.03,.18,.39,.27,.81,.27,1.26m-.57,23.5h-5.51V19.46h5.51v18.45Z"/><path class="cls-5" d="M167.11,23.83c-.17,.2-.33,.36-.48,.48-.15,.12-.37,.18-.66,.18s-.52-.07-.74-.2c-.22-.13-.47-.28-.74-.44-.27-.16-.59-.31-.96-.44-.37-.13-.82-.2-1.37-.2-.68,0-1.26,.12-1.75,.37-.49,.25-.9,.6-1.22,1.07-.32,.46-.56,1.03-.71,1.7-.15,.67-.23,1.43-.23,2.27,0,1.77,.34,3.12,1.02,4.07,.68,.95,1.62,1.42,2.82,1.42,.64,0,1.15-.08,1.52-.24,.37-.16,.69-.34,.95-.53,.26-.2,.5-.38,.72-.54,.22-.17,.5-.25,.83-.25,.44,0,.77,.16,1,.48l1.6,1.97c-.57,.65-1.17,1.18-1.8,1.59-.63,.41-1.27,.73-1.93,.96-.66,.23-1.32,.39-1.98,.48-.66,.09-1.31,.13-1.94,.13-1.13,0-2.2-.21-3.23-.64-1.03-.43-1.93-1.05-2.7-1.86-.78-.81-1.39-1.81-1.85-3-.46-1.19-.68-2.54-.68-4.06,0-1.33,.2-2.57,.6-3.73,.4-1.16,.98-2.16,1.76-3.01,.78-.85,1.74-1.52,2.88-2,1.14-.49,2.47-.73,3.98-.73s2.72,.23,3.81,.69c1.09,.46,2.08,1.14,2.95,2.03l-1.46,1.94Z"/><path class="cls-5" d="M176.38,11.28v14.92h.82c.34,0,.6-.05,.78-.15,.18-.1,.36-.27,.53-.51l3.49-5.19c.21-.3,.46-.52,.73-.67,.27-.15,.62-.22,1.05-.22h5.05l-4.77,6.56c-.45,.59-.98,1.08-1.6,1.46,.27,.2,.52,.44,.75,.7,.23,.27,.44,.57,.64,.9l5.19,8.82h-4.98c-.42,0-.77-.07-1.07-.2-.3-.14-.55-.38-.75-.72l-3.49-6.53c-.17-.3-.34-.49-.52-.58-.18-.09-.44-.13-.8-.13h-1.07v8.16h-5.51V11.28h5.51Z"/><path class="cls-5" d="M197.39,28.32v9.59h-6.01V11.99h8.43c1.87,0,3.47,.19,4.79,.58,1.32,.38,2.4,.92,3.24,1.61,.84,.69,1.44,1.5,1.82,2.44,.38,.94,.57,1.96,.57,3.06,0,.84-.11,1.64-.34,2.38-.23,.75-.56,1.44-1.01,2.07-.44,.64-.99,1.2-1.64,1.7s-1.39,.91-2.23,1.23c.4,.2,.78,.45,1.12,.76,.34,.3,.65,.66,.92,1.08l5.51,9.02h-5.44c-1.01,0-1.73-.38-2.17-1.14l-4.31-7.52c-.2-.32-.43-.55-.68-.7-.25-.15-.61-.22-1.07-.22h-1.53Zm0-4.14h2.42c.82,0,1.51-.1,2.09-.31,.58-.21,1.05-.5,1.41-.86,.37-.37,.63-.8,.8-1.29,.17-.49,.25-1.02,.25-1.59,0-1.14-.37-2.03-1.11-2.67-.74-.64-1.89-.96-3.44-.96h-2.42v7.68Z"/><path class="cls-5" d="M221.03,19.17c1.22,0,2.34,.19,3.35,.57,1.01,.38,1.89,.93,2.61,1.65,.73,.72,1.3,1.61,1.71,2.66,.41,1.05,.61,2.24,.61,3.57,0,.42-.02,.75-.05,1.01-.04,.26-.1,.47-.2,.62-.1,.15-.22,.26-.38,.32-.16,.06-.37,.09-.61,.09h-10.64c.18,1.54,.65,2.66,1.41,3.35,.76,.69,1.74,1.04,2.93,1.04,.64,0,1.19-.08,1.65-.23,.46-.15,.87-.33,1.24-.52,.36-.19,.69-.36,1-.52,.3-.15,.62-.23,.95-.23,.44,0,.77,.16,1,.48l1.6,1.98c-.57,.65-1.18,1.18-1.84,1.59-.66,.41-1.33,.73-2.03,.96-.69,.23-1.39,.39-2.08,.48-.69,.09-1.36,.13-1.98,.13-1.29,0-2.51-.21-3.64-.63-1.13-.42-2.12-1.05-2.97-1.88-.85-.83-1.52-1.86-2.01-3.09-.49-1.23-.74-2.67-.74-4.31,0-1.23,.21-2.4,.63-3.5,.42-1.1,1.03-2.07,1.81-2.9,.79-.83,1.74-1.49,2.86-1.97,1.12-.49,2.39-.73,3.8-.73m.11,3.81c-1.06,0-1.88,.3-2.47,.9-.59,.6-.98,1.46-1.17,2.59h6.88c0-.44-.06-.87-.17-1.28-.11-.41-.3-.79-.55-1.11-.26-.33-.59-.59-1.01-.79-.42-.2-.92-.3-1.51-.3"/><path class="cls-5" d="M245.36,37.9c-.69,0-1.14-.31-1.35-.92l-.43-1.41c-.37,.39-.75,.75-1.16,1.07-.4,.32-.84,.6-1.31,.83-.47,.23-.97,.41-1.51,.53-.54,.12-1.12,.19-1.75,.19-.96,0-1.85-.21-2.67-.64s-1.52-1.04-2.12-1.85c-.59-.81-1.06-1.79-1.4-2.96-.34-1.17-.51-2.5-.51-3.99,0-1.38,.19-2.65,.57-3.83,.38-1.18,.92-2.2,1.61-3.06,.69-.86,1.53-1.53,2.5-2.02,.97-.49,2.05-.73,3.22-.73,.95,0,1.75,.14,2.41,.42,.66,.28,1.25,.64,1.79,1.09V11.28h5.51v26.63h-3.41Zm-5.59-3.95c.4,0,.77-.04,1.09-.12,.33-.08,.63-.19,.9-.33,.27-.14,.53-.32,.77-.53,.24-.21,.48-.46,.72-.75v-7.83c-.43-.46-.88-.78-1.36-.97-.48-.18-.99-.28-1.52-.28s-.98,.1-1.41,.3c-.43,.2-.8,.52-1.11,.97-.31,.44-.56,1.02-.74,1.73-.18,.71-.27,1.57-.27,2.58s.07,1.79,.21,2.46c.14,.66,.34,1.2,.6,1.61,.25,.41,.56,.7,.92,.88s.75,.27,1.19,.27"/><path class="cls-6" d="M121.93,48.7c-.18,.28-.36,.5-.56,.64-.2,.14-.45,.21-.76,.21-.27,0-.57-.09-.88-.26-.31-.17-.67-.36-1.07-.58-.4-.21-.85-.41-1.36-.58-.51-.17-1.09-.26-1.74-.26-1.13,0-1.97,.24-2.52,.72-.55,.48-.83,1.13-.83,1.95,0,.52,.17,.96,.5,1.3,.33,.34,.77,.64,1.31,.89,.54,.25,1.16,.48,1.85,.68,.69,.21,1.4,.44,2.13,.69,.72,.25,1.43,.55,2.13,.9,.69,.34,1.31,.78,1.85,1.32,.54,.53,.98,1.18,1.31,1.95,.33,.77,.5,1.69,.5,2.77,0,1.2-.21,2.32-.62,3.36-.41,1.04-1.02,1.95-1.81,2.73-.79,.78-1.76,1.39-2.92,1.83-1.16,.44-2.47,.67-3.94,.67-.81,0-1.63-.08-2.46-.25-.84-.17-1.65-.4-2.43-.7-.78-.3-1.52-.66-2.21-1.08-.69-.41-1.29-.88-1.8-1.39l1.78-2.81c.14-.2,.33-.37,.56-.51,.23-.14,.48-.2,.76-.2,.36,0,.71,.11,1.08,.34,.36,.23,.77,.47,1.23,.75,.46,.27,.98,.52,1.57,.75,.59,.23,1.29,.34,2.1,.34,1.09,0,1.94-.24,2.54-.72s.91-1.24,.91-2.29c0-.61-.17-1.1-.5-1.48-.33-.38-.77-.69-1.31-.94-.54-.25-1.15-.47-1.84-.66-.69-.19-1.39-.4-2.12-.63-.72-.23-1.43-.52-2.12-.85-.69-.34-1.3-.78-1.84-1.33-.54-.55-.98-1.24-1.31-2.06-.33-.82-.5-1.84-.5-3.05,0-.97,.2-1.92,.59-2.85,.39-.92,.97-1.75,1.73-2.47,.76-.72,1.69-1.3,2.79-1.73,1.1-.43,2.37-.65,3.79-.65,.79,0,1.57,.06,2.32,.19,.75,.12,1.47,.31,2.14,.55,.68,.24,1.31,.53,1.89,.87,.59,.34,1.11,.72,1.57,1.15l-1.49,2.79Z"/><path class="cls-6" d="M133.47,74.13c-.17,.37-.37,.64-.6,.81-.24,.17-.62,.26-1.14,.26h-4.13l3.56-7.47-7.36-16.83h4.87c.43,0,.76,.09,.99,.28,.23,.19,.4,.42,.51,.68l3.02,7.95c.28,.74,.52,1.47,.69,2.21,.12-.38,.25-.76,.38-1.13,.14-.37,.28-.74,.42-1.11l2.74-7.92c.11-.27,.3-.5,.57-.68s.57-.28,.89-.28h4.45l-9.85,23.23Z"/><path class="cls-6" d="M156.24,54.94c-.14,.23-.29,.39-.45,.48-.16,.1-.36,.14-.61,.14s-.52-.06-.78-.17c-.26-.11-.54-.23-.84-.36-.3-.13-.64-.25-1.02-.37-.38-.11-.81-.17-1.3-.17-.7,0-1.24,.13-1.61,.4-.37,.27-.56,.64-.56,1.11,0,.34,.12,.63,.36,.85,.24,.23,.57,.42,.97,.6,.4,.17,.86,.34,1.37,.49,.51,.15,1.03,.33,1.56,.52,.53,.19,1.06,.41,1.57,.67,.51,.26,.97,.57,1.37,.94s.73,.83,.97,1.36c.24,.53,.36,1.17,.36,1.92,0,.91-.17,1.76-.5,2.53-.33,.77-.83,1.43-1.49,1.99-.66,.56-1.47,.99-2.44,1.3-.97,.31-2.08,.46-3.34,.46-.63,0-1.26-.06-1.89-.18-.63-.12-1.24-.28-1.82-.48-.59-.2-1.13-.44-1.63-.72-.5-.28-.93-.58-1.28-.9l1.28-2.03c.14-.24,.32-.42,.54-.56,.22-.14,.5-.2,.85-.2,.32,0,.61,.07,.86,.21,.25,.14,.53,.3,.83,.46,.3,.17,.64,.32,1.04,.46,.4,.14,.9,.21,1.5,.21,.43,0,.79-.04,1.09-.13,.3-.09,.53-.21,.71-.36,.18-.15,.31-.33,.39-.52,.08-.19,.12-.39,.12-.59,0-.37-.12-.67-.37-.91-.25-.24-.58-.44-.98-.61-.4-.17-.86-.33-1.38-.48-.52-.15-1.04-.32-1.57-.51-.53-.19-1.06-.42-1.57-.69-.52-.27-.98-.6-1.38-1.01-.4-.41-.73-.91-.98-1.5-.25-.59-.37-1.31-.37-2.15,0-.78,.15-1.53,.45-2.23,.3-.71,.76-1.33,1.36-1.86,.6-.53,1.36-.96,2.28-1.27,.91-.31,1.98-.47,3.2-.47,.66,0,1.31,.06,1.93,.18,.62,.12,1.21,.28,1.75,.5,.54,.21,1.04,.47,1.49,.76,.45,.29,.85,.61,1.19,.95l-1.24,1.94Z"/><path class="cls-6" d="M166.97,69.63c-.88,0-1.65-.13-2.32-.38-.67-.25-1.23-.62-1.69-1.08-.46-.47-.8-1.04-1.04-1.7-.24-.66-.36-1.41-.36-2.22v-9.53h-1.57c-.28,0-.53-.09-.73-.28-.2-.18-.3-.45-.3-.81v-2.15l2.94-.57,1.09-4.5c.14-.57,.55-.85,1.21-.85h2.88v5.39h4.57v3.77h-4.57v9.16c0,.43,.1,.78,.31,1.06,.21,.28,.51,.42,.9,.42,.2,0,.37-.02,.51-.06,.14-.04,.25-.09,.36-.14,.1-.05,.2-.1,.28-.14,.09-.04,.19-.06,.31-.06,.17,0,.3,.04,.4,.12,.1,.08,.2,.2,.31,.36l1.67,2.61c-.71,.53-1.51,.93-2.4,1.2-.89,.27-1.81,.4-2.76,.4"/><path class="cls-6" d="M181.98,50.62c1.22,0,2.34,.19,3.35,.57,1.01,.38,1.89,.93,2.61,1.66,.73,.72,1.3,1.61,1.71,2.66,.41,1.05,.61,2.24,.61,3.57,0,.42-.02,.75-.05,1.01-.04,.26-.1,.47-.2,.62-.1,.15-.22,.26-.38,.32-.16,.06-.37,.09-.61,.09h-10.64c.18,1.54,.65,2.66,1.41,3.35,.76,.69,1.74,1.04,2.93,1.04,.64,0,1.19-.08,1.65-.23,.46-.15,.87-.33,1.24-.52,.36-.19,.69-.36,1-.52,.3-.15,.62-.23,.95-.23,.44,0,.77,.16,1,.48l1.6,1.98c-.57,.65-1.18,1.18-1.84,1.59-.66,.41-1.33,.73-2.03,.96-.69,.23-1.39,.39-2.08,.48-.69,.09-1.36,.13-1.98,.13-1.29,0-2.51-.21-3.64-.63-1.13-.42-2.12-1.05-2.97-1.88-.85-.83-1.52-1.86-2.01-3.09-.49-1.23-.74-2.67-.74-4.31,0-1.23,.21-2.4,.63-3.5,.42-1.1,1.03-2.07,1.81-2.9,.79-.83,1.74-1.49,2.86-1.97,1.12-.49,2.39-.73,3.8-.73m.11,3.81c-1.06,0-1.88,.3-2.47,.9-.59,.6-.98,1.46-1.17,2.59h6.88c0-.44-.06-.87-.17-1.28-.11-.41-.3-.79-.55-1.11-.26-.33-.59-.59-1.01-.79-.42-.2-.92-.3-1.51-.3"/><path class="cls-6" d="M193.03,69.35v-18.45h3.42c.69,0,1.14,.31,1.35,.93l.3,1c.31-.32,.63-.61,.96-.88,.33-.27,.69-.5,1.08-.69,.39-.2,.8-.35,1.25-.46,.44-.11,.93-.17,1.47-.17,1.11,0,2.04,.29,2.77,.86,.73,.57,1.28,1.34,1.66,2.3,.31-.57,.68-1.06,1.13-1.46s.92-.73,1.44-.98c.52-.25,1.06-.43,1.64-.55,.58-.12,1.15-.18,1.72-.18,1.05,0,1.99,.16,2.81,.47,.82,.31,1.5,.77,2.06,1.37,.55,.6,.97,1.33,1.25,2.21,.28,.87,.43,1.86,.43,2.96v11.72h-5.51v-11.72c0-1.91-.82-2.86-2.46-2.86-.75,0-1.37,.25-1.86,.74-.49,.49-.74,1.2-.74,2.13v11.72h-5.51v-11.72c0-1.05-.21-1.8-.62-2.22-.42-.43-1.03-.64-1.83-.64-.5,0-.97,.11-1.41,.34-.44,.23-.86,.53-1.25,.91v13.34h-5.51Z"/><path class="cls-6" d="M235.03,54.94c-.14,.23-.29,.39-.45,.48-.16,.1-.36,.14-.61,.14-.26,0-.52-.06-.78-.17s-.54-.23-.84-.36c-.3-.13-.64-.25-1.02-.37-.38-.11-.81-.17-1.3-.17-.7,0-1.24,.13-1.61,.4-.37,.27-.56,.64-.56,1.11,0,.34,.12,.63,.36,.85,.24,.23,.57,.42,.97,.6,.4,.17,.86,.34,1.37,.49,.51,.15,1.03,.33,1.57,.52,.53,.19,1.05,.41,1.57,.67,.51,.26,.97,.57,1.37,.94,.4,.37,.73,.83,.97,1.36,.24,.53,.36,1.17,.36,1.92,0,.91-.17,1.76-.5,2.53-.33,.77-.83,1.43-1.49,1.99-.66,.56-1.47,.99-2.44,1.3-.97,.31-2.08,.46-3.34,.46-.63,0-1.26-.06-1.89-.18-.63-.12-1.24-.28-1.82-.48-.59-.2-1.13-.44-1.63-.72-.5-.28-.93-.58-1.28-.9l1.28-2.03c.14-.24,.32-.42,.54-.56,.22-.14,.5-.2,.84-.2,.32,0,.61,.07,.86,.21,.25,.14,.53,.3,.83,.46,.3,.17,.64,.32,1.04,.46,.4,.14,.9,.21,1.5,.21,.43,0,.79-.04,1.09-.13,.3-.09,.53-.21,.71-.36,.18-.15,.31-.33,.39-.52,.08-.19,.12-.39,.12-.59,0-.37-.12-.67-.37-.91-.25-.24-.58-.44-.98-.61-.4-.17-.86-.33-1.38-.48-.52-.15-1.04-.32-1.57-.51-.53-.19-1.06-.42-1.57-.69-.52-.27-.98-.6-1.38-1.01-.4-.41-.73-.91-.98-1.5-.25-.59-.37-1.31-.37-2.15,0-.78,.15-1.53,.45-2.23,.3-.71,.76-1.33,1.36-1.86,.61-.53,1.36-.96,2.28-1.27,.91-.31,1.98-.47,3.2-.47,.66,0,1.31,.06,1.93,.18,.62,.12,1.21,.28,1.75,.5,.54,.21,1.04,.47,1.49,.76,.45,.29,.85,.61,1.19,.95l-1.25,1.94Z"/></g><g class="cls-2"><path class="cls-5" d="M80.63,43.82c7.48-2.52,12.87-9.6,12.87-17.95,0-10.46-8.47-19.21-18.91-19.21H5.64l.37,.38-.66-.32v63.83H44.46l.27-22.77h20.46l14.51,22.77h16.38l-15.45-26.72Zm-26.46-25.09h17.89c3.62,0,6.55,3.08,6.55,6.71s-2.93,6.71-6.55,6.71h-14.8l-1.5-.74c2.95-2.98,1.28-12.68-1.59-12.68"/></g><g><path class="cls-5" d="M43.37,6.7h2.2c9.89,0,17.91,8.23,17.91,18.39s-8.02,18.39-17.91,18.39h-2.2"/><path class="cls-5" d="M43.37,34.44h2.2c9.89,0,17.91,8.23,17.91,18.39s-8.02,17.74-17.91,17.74h-2.2"/></g><path class="cls-1" d="M48.49,38.94c3.74-3.26,6.11-8.06,6.11-13.42,0-9.83-7.95-17.79-17.76-17.79H6.97v12.86h28.94c3.1,0,5.61,2.76,5.61,5.86s-2.51,5.3-5.61,5.3H6.97v13.37h28.94c3.1,0,5.61,2.58,5.61,5.68s-2.51,5.5-5.61,5.5H6.97v13.23h29.87c9.81,0,17.76-7.34,17.76-17.17,0-5.36-2.37-10.16-6.11-13.42"/></g></g></svg>