<svg width="64" height="22" viewBox="0 0 64 22" fill="none" xmlns="http://www.w3.org/2000/svg">
<rect x="0.00976562" y="0.0527344" width="63.7948" height="21.8332" rx="10.9166" fill="#F0FDF4"/>
<path d="M15.6071 10.0616H14.4991C14.4565 9.82483 14.3772 9.61649 14.2612 9.43657C14.1452 9.25664 14.0031 9.10394 13.835 8.97847C13.667 8.853 13.4788 8.7583 13.2704 8.69438C13.0645 8.63046 12.8455 8.5985 12.6135 8.5985C12.1944 8.5985 11.8192 8.70385 11.4877 8.91455C11.1587 9.12525 10.8983 9.4342 10.7065 9.8414C10.5171 10.2486 10.4224 10.7458 10.4224 11.3329C10.4224 11.9247 10.5171 12.4243 10.7065 12.8315C10.8983 13.2387 11.1599 13.5464 11.4913 13.7547C11.8227 13.9631 12.1956 14.0672 12.6099 14.0672C12.8395 14.0672 13.0574 14.0365 13.2633 13.9749C13.4717 13.911 13.6599 13.8175 13.8279 13.6944C13.996 13.5713 14.1381 13.4209 14.2541 13.2434C14.3725 13.0635 14.4541 12.8575 14.4991 12.6255L15.6071 12.629C15.5479 12.9865 15.4331 13.3156 15.2626 13.6163C15.0945 13.9146 14.8779 14.1726 14.6127 14.3904C14.35 14.6058 14.0493 14.7727 13.7108 14.8911C13.3722 15.0095 13.0029 15.0687 12.6028 15.0687C11.9731 15.0687 11.412 14.9195 10.9196 14.6212C10.4271 14.3206 10.0389 13.8909 9.75479 13.3322C9.47307 12.7735 9.33221 12.107 9.33221 11.3329C9.33221 10.5564 9.47425 9.88993 9.75835 9.33358C10.0424 8.77487 10.4307 8.34637 10.9231 8.04807C11.4155 7.74741 11.9754 7.59708 12.6028 7.59708C12.9887 7.59708 13.3485 7.65271 13.6824 7.76398C14.0185 7.87288 14.3204 8.03387 14.5879 8.24694C14.8554 8.45764 15.0768 8.71569 15.252 9.02108C15.4271 9.32411 15.5455 9.67094 15.6071 10.0616ZM19.1325 15.0793C18.6211 15.0793 18.1748 14.9621 17.7937 14.7278C17.4125 14.4934 17.1166 14.1655 16.9059 13.7441C16.6952 13.3227 16.5898 12.8303 16.5898 12.2668C16.5898 11.701 16.6952 11.2062 16.9059 10.7824C17.1166 10.3587 17.4125 10.0296 17.7937 9.79523C18.1748 9.56086 18.6211 9.44367 19.1325 9.44367C19.6438 9.44367 20.0901 9.56086 20.4712 9.79523C20.8524 10.0296 21.1483 10.3587 21.359 10.7824C21.5697 11.2062 21.6751 11.701 21.6751 12.2668C21.6751 12.8303 21.5697 13.3227 21.359 13.7441C21.1483 14.1655 20.8524 14.4934 20.4712 14.7278C20.0901 14.9621 19.6438 15.0793 19.1325 15.0793ZM19.136 14.188C19.4674 14.188 19.7421 14.1004 19.9599 13.9252C20.1777 13.75 20.3387 13.5168 20.4428 13.2256C20.5494 12.9344 20.6026 12.6137 20.6026 12.2633C20.6026 11.9153 20.5494 11.5957 20.4428 11.3045C20.3387 11.0109 20.1777 10.7753 19.9599 10.5978C19.7421 10.4202 19.4674 10.3315 19.136 10.3315C18.8022 10.3315 18.5252 10.4202 18.305 10.5978C18.0872 10.7753 17.9251 11.0109 17.8185 11.3045C17.7144 11.5957 17.6623 11.9153 17.6623 12.2633C17.6623 12.6137 17.7144 12.9344 17.8185 13.2256C17.9251 13.5168 18.0872 13.75 18.305 13.9252C18.5252 14.1004 18.8022 14.188 19.136 14.188ZM22.8603 14.9692V9.51469H23.8794V10.4025H23.9469C24.0605 10.1018 24.2464 9.86744 24.5044 9.69935C24.7625 9.5289 25.0714 9.44367 25.4313 9.44367C25.7959 9.44367 26.1013 9.5289 26.3475 9.69935C26.5961 9.86981 26.7795 10.1042 26.8979 10.4025H26.9547C27.0849 10.1113 27.2921 9.87928 27.5762 9.70645C27.8603 9.53126 28.1988 9.44367 28.5918 9.44367C29.0866 9.44367 29.4902 9.59874 29.8027 9.90887C30.1176 10.219 30.275 10.6866 30.275 11.3116V14.9692H29.2132V11.411C29.2132 11.0417 29.1126 10.7742 28.9114 10.6084C28.7102 10.4427 28.4699 10.3599 28.1905 10.3599C27.8449 10.3599 27.5762 10.4664 27.3844 10.6795C27.1926 10.8902 27.0968 11.1612 27.0968 11.4927V14.9692H26.0385V11.3435C26.0385 11.0476 25.9462 10.8097 25.7615 10.6297C25.5769 10.4498 25.3366 10.3599 25.0407 10.3599C24.8394 10.3599 24.6536 10.4131 24.4831 10.5197C24.315 10.6238 24.1789 10.7694 24.0748 10.9565C23.973 11.1435 23.9221 11.3601 23.9221 11.6063V14.9692H22.8603ZM31.6982 17.0147V9.51469H32.7351V10.3989H32.8239C32.8854 10.2853 32.9742 10.1539 33.0902 10.0047C33.2062 9.8556 33.3672 9.72539 33.5732 9.61412C33.7791 9.50049 34.0514 9.44367 34.3899 9.44367C34.8303 9.44367 35.2232 9.55494 35.5689 9.77748C35.9145 10 36.1856 10.3208 36.3821 10.7398C36.581 11.1589 36.6804 11.6631 36.6804 12.2526C36.6804 12.8421 36.5821 13.3476 36.3857 13.769C36.1892 14.188 35.9193 14.5111 35.576 14.7384C35.2327 14.9633 34.8409 15.0758 34.4006 15.0758C34.0691 15.0758 33.7981 15.0201 33.5874 14.9089C33.379 14.7976 33.2157 14.6674 33.0973 14.5182C32.9789 14.3691 32.8878 14.2365 32.8239 14.1205H32.7599V17.0147H31.6982ZM32.7386 12.242C32.7386 12.6255 32.7943 12.9617 32.9055 13.2505C33.0168 13.5393 33.1778 13.7654 33.3885 13.9288C33.5992 14.0897 33.8572 14.1702 34.1626 14.1702C34.4799 14.1702 34.745 14.0862 34.9581 13.9181C35.1712 13.7476 35.3321 13.5168 35.4411 13.2256C35.5523 12.9344 35.608 12.6065 35.608 12.242C35.608 11.8821 35.5535 11.559 35.4446 11.2725C35.3381 10.986 35.1771 10.76 34.9616 10.5942C34.7486 10.4285 34.4822 10.3457 34.1626 10.3457C33.8549 10.3457 33.5945 10.425 33.3814 10.5836C33.1707 10.7422 33.0109 10.9636 32.902 11.2476C32.7931 11.5317 32.7386 11.8632 32.7386 12.242ZM38.9318 7.69651V14.9692H37.87V7.69651H38.9318ZM42.7111 15.0793C42.1737 15.0793 41.7109 14.9645 41.3226 14.7349C40.9367 14.5029 40.6384 14.1773 40.4277 13.7583C40.2194 13.3369 40.1152 12.8433 40.1152 12.2775C40.1152 11.7188 40.2194 11.2263 40.4277 10.8002C40.6384 10.3741 40.932 10.0414 41.3084 9.80233C41.6872 9.56322 42.1299 9.44367 42.6365 9.44367C42.9443 9.44367 43.2426 9.49457 43.5314 9.59637C43.8203 9.69817 44.0795 9.85797 44.3091 10.0758C44.5388 10.2936 44.7199 10.5765 44.8525 10.9245C44.985 11.2701 45.0513 11.6904 45.0513 12.1851V12.5616H40.7154V11.7661H44.0108C44.0108 11.4868 43.954 11.2394 43.8404 11.0239C43.7267 10.8061 43.5669 10.6345 43.361 10.509C43.1574 10.3835 42.9183 10.3208 42.6436 10.3208C42.3453 10.3208 42.0849 10.3942 41.8624 10.541C41.6422 10.6854 41.4718 10.8748 41.351 11.1092C41.2327 11.3412 41.1735 11.5933 41.1735 11.8655V12.487C41.1735 12.8516 41.2374 13.1617 41.3652 13.4174C41.4954 13.6731 41.6766 13.8684 41.9086 14.0033C42.1406 14.1359 42.4116 14.2022 42.7218 14.2022C42.923 14.2022 43.1065 14.1738 43.2722 14.117C43.4379 14.0578 43.5811 13.9702 43.7019 13.8542C43.8226 13.7382 43.915 13.5949 43.9789 13.4245L44.9838 13.6056C44.9033 13.9015 44.7589 14.1608 44.5506 14.3833C44.3446 14.6035 44.0854 14.7751 43.7729 14.8982C43.4628 15.019 43.1088 15.0793 42.7111 15.0793ZM48.7756 9.51469V10.367H45.7962V9.51469H48.7756ZM46.5952 8.20787H47.657V13.3677C47.657 13.5736 47.6877 13.7287 47.7493 13.8329C47.8108 13.9347 47.8902 14.0045 47.9872 14.0424C48.0866 14.0779 48.1944 14.0957 48.3104 14.0957C48.3956 14.0957 48.4702 14.0897 48.5341 14.0779C48.598 14.0661 48.6477 14.0566 48.6832 14.0495L48.875 14.9266C48.8134 14.9503 48.7259 14.974 48.6122 14.9976C48.4986 15.0237 48.3565 15.0379 48.1861 15.0403C47.9067 15.045 47.6463 14.9953 47.4048 14.8911C47.1634 14.7869 46.968 14.626 46.8189 14.4082C46.6697 14.1904 46.5952 13.9169 46.5952 13.5878V8.20787ZM52.2424 15.0793C51.705 15.0793 51.2421 14.9645 50.8539 14.7349C50.468 14.5029 50.1697 14.1773 49.959 13.7583C49.7507 13.3369 49.6465 12.8433 49.6465 12.2775C49.6465 11.7188 49.7507 11.2263 49.959 10.8002C50.1697 10.3741 50.4632 10.0414 50.8397 9.80233C51.2185 9.56322 51.6612 9.44367 52.1678 9.44367C52.4756 9.44367 52.7739 9.49457 53.0627 9.59637C53.3515 9.69817 53.6107 9.85797 53.8404 10.0758C54.07 10.2936 54.2511 10.5765 54.3837 10.9245C54.5163 11.2701 54.5826 11.6904 54.5826 12.1851V12.5616H50.2466V11.7661H53.5421C53.5421 11.4868 53.4853 11.2394 53.3716 11.0239C53.258 10.8061 53.0982 10.6345 52.8922 10.509C52.6886 10.3835 52.4495 10.3208 52.1749 10.3208C51.8766 10.3208 51.6162 10.3942 51.3936 10.541C51.1735 10.6854 51.003 10.8748 50.8823 11.1092C50.7639 11.3412 50.7047 11.5933 50.7047 11.8655V12.487C50.7047 12.8516 50.7686 13.1617 50.8965 13.4174C51.0267 13.6731 51.2078 13.8684 51.4398 14.0033C51.6718 14.1359 51.9429 14.2022 52.253 14.2022C52.4542 14.2022 52.6377 14.1738 52.8034 14.117C52.9692 14.0578 53.1124 13.9702 53.2331 13.8542C53.3539 13.7382 53.4462 13.5949 53.5101 13.4245L54.5151 13.6056C54.4346 13.9015 54.2902 14.1608 54.0819 14.3833C53.8759 14.6035 53.6167 14.7751 53.3042 14.8982C52.994 15.019 52.6401 15.0793 52.2424 15.0793Z" fill="#24D164"/>
</svg>
