<svg width="63" height="23" viewBox="0 0 63 23" fill="none" xmlns="http://www.w3.org/2000/svg">
<rect x="0.00976562" y="0.745605" width="62.1407" height="21.8332" rx="10.9166" fill="#FFFBEB"/>
<path d="M6.08185 8.38938V15.6621H4.98455V8.38938H6.08185ZM8.65643 12.4235V15.6621H7.59464V10.2076H8.61381V11.0953H8.68129C8.80676 10.8065 9.00326 10.5745 9.27077 10.3993C9.54066 10.2241 9.88039 10.1365 10.29 10.1365C10.6616 10.1365 10.9872 10.2147 11.2665 10.3709C11.5459 10.5248 11.7625 10.7544 11.9164 11.0598C12.0703 11.3652 12.1472 11.7428 12.1472 12.1926V15.6621H11.0854V12.3205C11.0854 11.9251 10.9824 11.6162 10.7765 11.3936C10.5705 11.1687 10.2876 11.0563 9.92773 11.0563C9.68152 11.0563 9.46254 11.1096 9.27077 11.2161C9.08138 11.3226 8.93105 11.4789 8.81978 11.6848C8.71088 11.8884 8.65643 12.1346 8.65643 12.4235ZM16.3029 15.6621V8.38938H18.8952C19.4611 8.38938 19.9298 8.49236 20.3015 8.69833C20.6732 8.9043 20.9513 9.18602 21.136 9.5435C21.3207 9.89862 21.413 10.2987 21.413 10.7438C21.413 11.1912 21.3195 11.5937 21.1325 11.9512C20.9478 12.3063 20.6684 12.588 20.2944 12.7963C19.9227 13.0023 19.4551 13.1053 18.8917 13.1053H17.109V12.1749H18.7923C19.1497 12.1749 19.4397 12.1133 19.6623 11.9902C19.8848 11.8648 20.0482 11.6943 20.1523 11.4789C20.2565 11.2634 20.3086 11.0184 20.3086 10.7438C20.3086 10.4692 20.2565 10.2253 20.1523 10.0123C20.0482 9.79918 19.8836 9.63228 19.6587 9.51154C19.4362 9.3908 19.1426 9.33043 18.7781 9.33043H17.4002V15.6621H16.3029ZM22.6142 15.6621V10.2076H23.6404V11.074H23.6973C23.7967 10.7805 23.9719 10.5497 24.2228 10.3816C24.4761 10.2111 24.7626 10.1259 25.0822 10.1259C25.1485 10.1259 25.2266 10.1283 25.3166 10.133C25.4089 10.1377 25.4811 10.1436 25.5332 10.1507V11.1664C25.4906 11.1545 25.4148 11.1415 25.3059 11.1273C25.197 11.1107 25.0881 11.1025 24.9792 11.1025C24.7283 11.1025 24.5046 11.1557 24.3081 11.2623C24.1139 11.3664 23.96 11.512 23.8464 11.699C23.7328 11.8837 23.676 12.0944 23.676 12.3311V15.6621H22.6142ZM28.5543 15.7722C28.043 15.7722 27.5967 15.655 27.2156 15.4206C26.8344 15.1863 26.5385 14.8584 26.3278 14.437C26.1171 14.0156 26.0117 13.5231 26.0117 12.9597C26.0117 12.3939 26.1171 11.8991 26.3278 11.4753C26.5385 11.0516 26.8344 10.7225 27.2156 10.4881C27.5967 10.2537 28.043 10.1365 28.5543 10.1365C29.0657 10.1365 29.512 10.2537 29.8931 10.4881C30.2743 10.7225 30.5702 11.0516 30.7809 11.4753C30.9916 11.8991 31.0969 12.3939 31.0969 12.9597C31.0969 13.5231 30.9916 14.0156 30.7809 14.437C30.5702 14.8584 30.2743 15.1863 29.8931 15.4206C29.512 15.655 29.0657 15.7722 28.5543 15.7722ZM28.5579 14.8809C28.8893 14.8809 29.1639 14.7933 29.3817 14.6181C29.5996 14.4429 29.7605 14.2097 29.8647 13.9185C29.9712 13.6273 30.0245 13.3065 30.0245 12.9561C30.0245 12.6081 29.9712 12.2885 29.8647 11.9973C29.7605 11.7038 29.5996 11.4682 29.3817 11.2907C29.1639 11.1131 28.8893 11.0243 28.5579 11.0243C28.2241 11.0243 27.9471 11.1131 27.7269 11.2907C27.5091 11.4682 27.3469 11.7038 27.2404 11.9973C27.1362 12.2885 27.0842 12.6081 27.0842 12.9561C27.0842 13.3065 27.1362 13.6273 27.2404 13.9185C27.3469 14.2097 27.5091 14.4429 27.7269 14.6181C27.9471 14.7933 28.2241 14.8809 28.5579 14.8809ZM34.5691 17.8212C34.1358 17.8212 33.763 17.7644 33.4505 17.6507C33.1403 17.5371 32.887 17.3868 32.6905 17.1998C32.494 17.0127 32.3472 16.8079 32.2502 16.5854L33.1628 16.209C33.2267 16.3132 33.312 16.4232 33.4185 16.5392C33.5274 16.6576 33.6742 16.7582 33.8588 16.8411C34.0459 16.9239 34.2862 16.9654 34.5797 16.9654C34.9822 16.9654 35.3148 16.8671 35.5776 16.6706C35.8404 16.4765 35.9718 16.1664 35.9718 15.7402V14.6678H35.9043C35.8404 14.7838 35.748 14.9128 35.6273 15.0549C35.5089 15.1969 35.3456 15.32 35.1373 15.4242C34.9289 15.5283 34.6578 15.5804 34.324 15.5804C33.8932 15.5804 33.5049 15.4798 33.1593 15.2786C32.816 15.075 32.5437 14.7755 32.3425 14.3801C32.1436 13.9824 32.0442 13.4935 32.0442 12.9135C32.0442 12.3335 32.1425 11.8364 32.339 11.4221C32.5378 11.0078 32.8101 10.6905 33.1557 10.4703C33.5014 10.2478 33.8932 10.1365 34.3311 10.1365C34.6697 10.1365 34.9431 10.1934 35.1515 10.307C35.3598 10.4183 35.522 10.5485 35.638 10.6976C35.7563 10.8468 35.8475 10.9782 35.9114 11.0918H35.9895V10.2076H37.03V15.7828C37.03 16.2516 36.9211 16.6363 36.7033 16.937C36.4855 17.2376 36.1908 17.4602 35.8191 17.6046C35.4498 17.749 35.0331 17.8212 34.5691 17.8212ZM34.5584 14.6998C34.8638 14.6998 35.1219 14.6287 35.3326 14.4867C35.5456 14.3423 35.7066 14.1363 35.8155 13.8688C35.9268 13.5989 35.9824 13.2757 35.9824 12.8993C35.9824 12.5324 35.928 12.2092 35.8191 11.9299C35.7102 11.6505 35.5504 11.4327 35.3397 11.2765C35.129 11.1178 34.8685 11.0385 34.5584 11.0385C34.2388 11.0385 33.9725 11.1214 33.7594 11.2871C33.5463 11.4505 33.3854 11.673 33.2765 11.9547C33.1699 12.2364 33.1167 12.5513 33.1167 12.8993C33.1167 13.2568 33.1711 13.5705 33.28 13.8404C33.3889 14.1103 33.5499 14.321 33.763 14.4725C33.9784 14.624 34.2435 14.6998 34.5584 14.6998ZM38.454 15.6621V10.2076H39.4803V11.074H39.5371C39.6365 10.7805 39.8117 10.5497 40.0627 10.3816C40.316 10.2111 40.6025 10.1259 40.9221 10.1259C40.9883 10.1259 41.0665 10.1283 41.1564 10.133C41.2488 10.1377 41.321 10.1436 41.373 10.1507V11.1664C41.3304 11.1545 41.2547 11.1415 41.1458 11.1273C41.0369 11.1107 40.928 11.1025 40.8191 11.1025C40.5681 11.1025 40.3444 11.1557 40.1479 11.2623C39.9538 11.3664 39.7999 11.512 39.6863 11.699C39.5726 11.8837 39.5158 12.0944 39.5158 12.3311V15.6621H38.454ZM44.4474 15.7722C43.91 15.7722 43.4472 15.6574 43.0589 15.4277C42.6731 15.1957 42.3748 14.8702 42.1641 14.4512C41.9557 14.0298 41.8516 13.5362 41.8516 12.9703C41.8516 12.4116 41.9557 11.9192 42.1641 11.4931C42.3748 11.0669 42.6683 10.7343 43.0447 10.4952C43.4235 10.2561 43.8662 10.1365 44.3729 10.1365C44.6806 10.1365 44.9789 10.1874 45.2678 10.2892C45.5566 10.391 45.8158 10.5508 46.0455 10.7686C46.2751 10.9864 46.4562 11.2694 46.5888 11.6174C46.7214 11.963 46.7876 12.3832 46.7876 12.878V13.2544H42.4517V12.459H45.7472C45.7472 12.1796 45.6903 11.9322 45.5767 11.7168C45.4631 11.499 45.3033 11.3274 45.0973 11.2019C44.8937 11.0764 44.6546 11.0137 44.38 11.0137C44.0817 11.0137 43.8213 11.0871 43.5987 11.2338C43.3786 11.3783 43.2081 11.5676 43.0874 11.802C42.969 12.034 42.9098 12.2862 42.9098 12.5584V13.1799C42.9098 13.5444 42.9737 13.8546 43.1016 14.1103C43.2318 14.3659 43.4129 14.5613 43.6449 14.6962C43.8769 14.8288 44.148 14.8951 44.4581 14.8951C44.6593 14.8951 44.8428 14.8667 45.0085 14.8098C45.1742 14.7507 45.3175 14.6631 45.4382 14.5471C45.5589 14.431 45.6513 14.2878 45.7152 14.1174L46.7202 14.2985C46.6397 14.5944 46.4953 14.8536 46.2869 15.0762C46.081 15.2963 45.8217 15.468 45.5092 15.5911C45.1991 15.7118 44.8452 15.7722 44.4474 15.7722ZM52.0531 11.5392L51.0907 11.7097C51.0505 11.5866 50.9866 11.4694 50.899 11.3581C50.8137 11.2469 50.6977 11.1557 50.551 11.0847C50.4042 11.0137 50.2207 10.9782 50.0005 10.9782C49.6999 10.9782 49.4489 11.0456 49.2477 11.1806C49.0465 11.3132 48.9458 11.4848 48.9458 11.6955C48.9458 11.8778 49.0133 12.0246 49.1483 12.1358C49.2832 12.2471 49.501 12.3382 49.8017 12.4093L50.6681 12.6081C51.17 12.7241 51.5441 12.9029 51.7903 13.1444C52.0365 13.3858 52.1596 13.6995 52.1596 14.0854C52.1596 14.4121 52.0649 14.7033 51.8755 14.959C51.6885 15.2123 51.4269 15.4112 51.0907 15.5556C50.7569 15.7 50.3699 15.7722 49.9295 15.7722C49.3187 15.7722 48.8204 15.642 48.4345 15.3816C48.0486 15.1188 47.8118 14.7459 47.7243 14.263L48.7505 14.1067C48.8145 14.3742 48.9458 14.5766 49.1447 14.714C49.3436 14.8489 49.6028 14.9164 49.9224 14.9164C50.2704 14.9164 50.5486 14.8442 50.7569 14.6998C50.9653 14.553 51.0694 14.3742 51.0694 14.1635C51.0694 13.9931 51.0055 13.8498 50.8777 13.7338C50.7522 13.6178 50.5592 13.5302 50.2988 13.4711L49.3755 13.2686C48.8665 13.1526 48.4901 12.968 48.2463 12.7147C48.0048 12.4614 47.8841 12.1406 47.8841 11.7523C47.8841 11.4303 47.974 11.1486 48.1539 10.9071C48.3339 10.6657 48.5824 10.4775 48.8997 10.3425C49.2169 10.2052 49.5803 10.1365 49.9899 10.1365C50.5794 10.1365 51.0434 10.2644 51.3819 10.5201C51.7205 10.7734 51.9442 11.1131 52.0531 11.5392ZM57.4144 11.5392L56.4521 11.7097C56.4118 11.5866 56.3479 11.4694 56.2603 11.3581C56.1751 11.2469 56.0591 11.1557 55.9123 11.0847C55.7655 11.0137 55.582 10.9782 55.3619 10.9782C55.0612 10.9782 54.8103 11.0456 54.609 11.1806C54.4078 11.3132 54.3072 11.4848 54.3072 11.6955C54.3072 11.8778 54.3746 12.0246 54.5096 12.1358C54.6445 12.2471 54.8623 12.3382 55.163 12.4093L56.0295 12.6081C56.5314 12.7241 56.9054 12.9029 57.1516 13.1444C57.3978 13.3858 57.521 13.6995 57.521 14.0854C57.521 14.4121 57.4263 14.7033 57.2369 14.959C57.0498 15.2123 56.7882 15.4112 56.4521 15.5556C56.1183 15.7 55.7312 15.7722 55.2908 15.7722C54.68 15.7722 54.1817 15.642 53.7958 15.3816C53.4099 15.1188 53.1732 14.7459 53.0856 14.263L54.1119 14.1067C54.1758 14.3742 54.3072 14.5766 54.506 14.714C54.7049 14.8489 54.9641 14.9164 55.2837 14.9164C55.6317 14.9164 55.9099 14.8442 56.1183 14.6998C56.3266 14.553 56.4308 14.3742 56.4308 14.1635C56.4308 13.9931 56.3668 13.8498 56.239 13.7338C56.1135 13.6178 55.9206 13.5302 55.6602 13.4711L54.7369 13.2686C54.2279 13.1526 53.8514 12.968 53.6076 12.7147C53.3661 12.4614 53.2454 12.1406 53.2454 11.7523C53.2454 11.4303 53.3353 11.1486 53.5153 10.9071C53.6952 10.6657 53.9438 10.4775 54.261 10.3425C54.5782 10.2052 54.9416 10.1365 55.3512 10.1365C55.9407 10.1365 56.4047 10.2644 56.7433 10.5201C57.0818 10.7734 57.3055 11.1131 57.4144 11.5392Z" fill="#F6A723"/>
</svg>
